<svg xmlns="http://www.w3.org/2000/svg" xmlns:xlink="http://www.w3.org/1999/xlink" width="360" height="195" viewBox="0 0 360 195">
    <defs>
        <rect id="b" width="120.297" height="36.007" rx="7.2"/>
        <filter id="a" width="144.1%" height="261.1%" x="-22%" y="-48.6%" filterUnits="objectBoundingBox">
            <feMorphology in="SourceAlpha" operator="dilate" radius=".5" result="shadowSpreadOuter1"/>
            <feOffset dy="14" in="shadowSpreadOuter1" result="shadowOffsetOuter1"/>
            <feGaussianBlur in="shadowOffsetOuter1" result="shadowBlurOuter1" stdDeviation="6"/>
            <feColorMatrix in="shadowBlurOuter1" result="shadowMatrixOuter1" values="0 0 0 0 0.278431373 0 0 0 0 0.57254902 0 0 0 0 0.870588235 0 0 0 0.158708479 0"/>
            <feOffset dy="2" in="SourceAlpha" result="shadowOffsetOuter2"/>
            <feGaussianBlur in="shadowOffsetOuter2" result="shadowBlurOuter2" stdDeviation="2.5"/>
            <feColorMatrix in="shadowBlurOuter2" result="shadowMatrixOuter2" values="0 0 0 0 0 0 0 0 0 0 0 0 0 0 0 0 0 0 0.13 0"/>
            <feMerge>
                <feMergeNode in="shadowMatrixOuter1"/>
                <feMergeNode in="shadowMatrixOuter2"/>
            </feMerge>
        </filter>
    </defs>
    <g fill="none" fill-rule="evenodd">
        <ellipse cx="179.85" cy="176.53" fill="#F1F8FF" fill-opacity=".067" fill-rule="nonzero" rx="179.85" ry="17.683"/>
        <g transform="translate(59.867)">
            <g transform="translate(79.993 .754)">
                <rect width="2.728" height="21.141" x="85.245" y="34.196" fill="#3F3D56" fill-rule="nonzero" rx="1.364"/>
                <rect width="1.364" height="6.82" y="17.829" fill="#3F3D56" fill-rule="nonzero" rx=".682"/>
                <rect width="1.364" height="12.275" y="30.105" fill="#3F3D56" fill-rule="nonzero" rx=".682"/>
                <rect width="1.364" height="12.275" y="47.153" fill="#3F3D56" fill-rule="nonzero" rx=".682"/>
                <g transform="translate(.682)">
                    <rect width="85.927" height="169.224" fill="#494953" fill-rule="nonzero" rx="16"/>
                    <rect width="12.275" height="2.728" x="34.78" y="5.686" fill="#E6E8EC" fill-rule="nonzero" rx="1.364"/>
                    <circle cx="49.783" cy="7.05" r="1.364" fill="#E6E8EC" fill-rule="nonzero"/>
                    <path fill="#FFF" fill-rule="nonzero" d="M82.163 157.09c-.001 3.616-3.175 6.546-7.089 6.546H11.026c-3.914 0-7.088-2.93-7.09-6.546V11.339c0-3.617 3.175-6.55 7.09-6.55h9.584v1.15c.001 2.977 2.614 5.391 5.837 5.392h32.585c3.22-.006 5.824-2.419 5.824-5.392V4.8h10.218c3.91 0 7.082 2.925 7.09 6.538v145.75z"/>
                    <path fill="#3F3D56" fill-rule="nonzero" d="M7.502 15.617h7.502v1H7.502zM7.502 13.738h7.502v1H7.502zM7.502 17.496h7.502v1H7.502zM77.052 16.05h-.216l-.083-.07c.273-.326.422-.738.422-1.163a1.766 1.766 0 0 0-1.771-1.761 1.766 1.766 0 0 0-1.753 1.78 1.766 1.766 0 0 0 1.772 1.76c.422-.002.83-.152 1.155-.423l.08.069v.219l1.36 1.368.407-.409-1.373-1.37zm-1.63 0a1.227 1.227 0 0 1-1.136-.758 1.237 1.237 0 0 1 .263-1.345c.35-.354.878-.46 1.337-.27.46.19.759.64.759 1.14.001.326-.127.64-.356.872-.23.231-.541.36-.866.36z"/>
                    <path fill="#0080DD" fill-rule="nonzero" d="M7.502 31.468h23.187v5.456H7.502z"/>
                    <path fill="#0080FF" fill-rule="nonzero" d="M7.502 39.652h70.924v2.728H7.502zM7.502 45.79h28.642v2.728H7.502z" opacity=".3"/>
                    <path fill="#0080DD" fill-rule="nonzero" d="M7.502 92.163h23.187v5.456H7.502z"/>
                    <path fill="#0080FF" fill-rule="nonzero" d="M7.502 100.346h70.924v2.728H7.502zM7.502 106.484h28.642v2.728H7.502z" opacity=".3"/>
                    <path fill="#0080DD" fill-rule="nonzero" d="M7.502 122.169h23.187v5.456H7.502z"/>
                    <path fill="#0080FF" fill-rule="nonzero" d="M7.502 131.034h70.924v2.728H7.502zM7.502 137.172h28.642v2.728H7.502z" opacity=".3"/>
                    <g transform="translate(60.477 141.264)">
                        <circle cx="8.524" cy="8.524" r="8.524" fill="#0080FF" fill-rule="nonzero"/>
                        <path stroke="#FFF" stroke-linecap="round" d="M12.957 8.07v3.908a.303.303 0 0 1-.308.297H4.4a.303.303 0 0 1-.307-.297V5.753c0-.164.138-.297.308-.297h5.74M5.456 7.502h5.455M5.456 8.865h5.455M5.456 10.229h5.455M13.19 3.975v2.728M14.554 5.339h-2.728"/>
                    </g>
                    <path fill="#F8FAFC" fill-rule="nonzero" d="M78.425 64.155v20.568c0 2.602-2.158 4.712-4.82 4.712H4.19V59.429h69.416c1.28 0 2.509.498 3.413 1.385a4.658 4.658 0 0 1 1.406 3.341z"/>
                </g>
            </g>
            <path stroke="#3F3D56" stroke-width="4" d="M220.188 167.932c.732-1.363-.097-3.035-1.046-4.25-.948-1.214-2.1-2.472-2.075-4.028.037-2.226 2.365-3.539 4.226-4.721a20.538 20.538 0 0 0 3.794-3.094c.478-.454.872-.99 1.166-1.583.385-.87.376-1.86.351-2.812a209.18 209.18 0 0 0-.466-9.519"/>
            <path fill="#57B894" fill-rule="nonzero" d="M230.018 137.776a3.41 3.41 0 0 0-1.705-2.801l-.765 1.515.025-1.835a3.463 3.463 0 0 0-1.128-.136 3.41 3.41 0 1 0 3.576 3.257h-.003zM223.506 161.311a3.41 3.41 0 1 1 .166-2.752l-2.136 1.737 2.35-.543a3.41 3.41 0 0 1-.38 1.558zM222.039 154.284a3.377 3.377 0 0 1-3.565-2.848c-.278-1.736.803-3.4 2.494-3.835l-.02 1.403.766-1.527a3.354 3.354 0 0 1 2.434.882 3.41 3.41 0 0 1 1.098 2.361c.02.393-.03.787-.145 1.163a3.376 3.376 0 0 1-3.062 2.4zM230.16 148.834a3.42 3.42 0 0 1-3.3-2.139 3.403 3.403 0 0 1 .905-3.82 3.429 3.429 0 0 1 3.913-.439l-.606 1.656 1.246-1.193a3.405 3.405 0 0 1 1.026 3.298 3.418 3.418 0 0 1-3.184 2.637z"/>
            <path fill="#000" fill-rule="nonzero" d="M229.631 138.128c-.8.083-1.578.324-2.38.372-.804.047-1.685-.136-2.194-.739-.272-.324-.41-.733-.64-1.088-.22-.33-.52-.602-.874-.793a3.238 3.238 0 0 0 .41 3.512c.823.998 2.164 1.458 3.455 1.183 1.29-.275 2.306-1.236 2.616-2.476a5.51 5.51 0 0 0-.393.029zM230.237 148.832a3.485 3.485 0 0 1-3.043-1.48 3.248 3.248 0 0 1-.245-3.289c.274.179.51.407.694.673.247.36.397.777.685 1.106.54.613 1.458.813 2.293.777.835-.035 1.64-.267 2.463-.34.116 0 .231-.017.35-.02-.352 1.454-1.657 2.504-3.197 2.573zM222.077 154.288a3.503 3.503 0 0 1-3.044-1.472 3.303 3.303 0 0 1-.293-3.297c.289.183.54.416.744.688.27.371.439.8.756 1.144.587.634 1.574.859 2.462.84.887-.02 1.693-.225 2.548-.29-.43 1.37-1.702 2.327-3.173 2.387zM223.886 161.152c-.804 1.709-2.913 2.474-4.71 1.71-1.797-.765-2.602-2.77-1.798-4.478.295.183.56.407.784.665.34.392.564.839.956 1.209.73.682 1.907.967 2.958.989.605.002 1.21-.03 1.81-.095z" opacity=".1"/>
            <path fill="#656380" fill-rule="nonzero" d="M215.02 166.082s2.75-.089 3.579-.71c.829-.62 4.218-1.357 4.432-.364.213.993 4.131 4.953 1.03 4.97-3.102.015-7.211-.507-8.04-1.044-.829-.537-1-2.852-1-2.852z"/>
            <path fill="#000" fill-rule="nonzero" d="M224.124 169.67c-3.107.023-7.218-.443-8.045-.909-.631-.352-.882-1.611-.966-2.193h-.092s.174 2.032.993 2.5c.82.468 4.94.925 8.048.91.897 0 1.205-.299 1.187-.73-.116.254-.457.415-1.125.422z" opacity=".2"/>
            <g fill-rule="nonzero">
                <g transform="translate(131.133 30)">
                    <use fill="#000" filter="url(#a)" xlink:href="#b"/>
                    <use fill="#FFF" xlink:href="#b"/>
                </g>
                <path fill="#0080FF" d="M145.863 37.365h27.824v6.547h-27.824z"/>
                <path fill="#0080FF" d="M145.863 47.185h85.108v3.273h-85.108zM145.863 54.55h34.371v3.273h-34.371z" opacity=".3"/>
            </g>
            <circle cx="22.027" cy="43.815" r="8.865" fill="#3F3D56" fill-rule="nonzero"/>
            <path fill="#494953" fill-rule="nonzero" d="M17.2 112.964c.914 6.46-.2 13.046-1.935 19.331-.324 1.17-.673 2.35-1.28 3.4-.607 1.051-1.45 1.954-2.164 2.942-1.485 2.061-2.357 4.491-3.171 6.896A195.705 195.705 0 0 0 3 165.823a1.4 1.4 0 0 0 0 .865c.216.5.87.564 1.407.562l6.946-.038c.248-.479-.21-.998-.495-1.457-.99-1.552-.04-3.568.835-5.192a56.08 56.08 0 0 0 4.896-12.475c.476-1.829.862-3.697 1.634-5.421.934-2.091 2.397-3.89 3.585-5.846 1.382-2.273 2.39-4.74 3.39-7.218 1.396-3.438 2.804-6.919 3.354-10.591.517-3.448.262-6.961-.074-10.432a.662.662 0 0 0-.189-.57.65.65 0 0 0-.569-.178l-9.32-.484c-1.922-.1-2.378-.524-2.085 1.377.203 1.42.683 2.802.886 4.239z"/>
            <path fill="#000" fill-rule="nonzero" d="M17.2 112.964c.914 6.46-.2 13.046-1.935 19.331-.324 1.17-.673 2.35-1.28 3.4-.607 1.051-1.45 1.954-2.164 2.942-1.485 2.061-2.357 4.491-3.171 6.896A195.705 195.705 0 0 0 3 165.823a1.4 1.4 0 0 0 0 .865c.216.5.87.564 1.407.562l6.946-.038c.248-.479-.21-.998-.495-1.457-.99-1.552-.04-3.568.835-5.192a56.08 56.08 0 0 0 4.896-12.475c.476-1.829.862-3.697 1.634-5.421.934-2.091 2.397-3.89 3.585-5.846 1.382-2.273 2.39-4.74 3.39-7.218 1.396-3.438 2.804-6.919 3.354-10.591.517-3.448.262-6.961-.074-10.432a.662.662 0 0 0-.189-.57.65.65 0 0 0-.569-.178l-9.32-.484c-1.922-.1-2.378-.524-2.085 1.377.203 1.42.683 2.802.886 4.239z" opacity=".1"/>
            <path fill="#494953" fill-rule="nonzero" d="M18.588 97.023c-1.9 2.745-3.893 5.905-3.262 9.192.48 2.496 2.373 4.43 4.159 6.24 7.14 7.203 14.16 15.204 16.59 25.075.625 2.55.928 5.17 1.468 7.737.978 4.667 2.732 9.13 4.471 13.565l4.65 11.825a7.045 7.045 0 0 0 6.733-4.492c-.611-.048-1.409-.642-1.767-1.14-1.987-2.764-2.394-6.318-2.904-9.687-.563-3.724-1.316-7.418-2.071-11.109l-3.33-16.328c-.384-1.884-.77-3.77-1.271-5.625-1.943-7.196-5.624-13.977-6.193-21.417-.085-1.093-.137-2.294-.875-3.105-.775-.856-2.047-.998-3.197-1.065-4.653-.31-8.667-.767-13.201.334z"/>
            <path fill="#93939D" fill-rule="nonzero" d="M5.917 165.78a7.646 7.646 0 0 0-1.557-.195 3.255 3.255 0 0 0-2.544 1.356c-.292.458-.522.95-.683 1.467l-.678 1.901c-.2.557-.396 1.2-.098 1.71.22.322.54.566.911.697 1.642.714 3.492.753 5.282.924 1.737.166 3.46.465 5.174.78.591.107 1.18.217 1.778.276 1.337.132 2.683 0 4.02-.117l1.38-.13c.461-.02.918-.101 1.356-.244a1.696 1.696 0 0 0 1.002-.878c.34-.823-.391-1.798-1.285-1.955-.363-.07-.738-.039-1.106-.085a5.322 5.322 0 0 1-1.212-.355c-1.765-.677-3.547-1.361-5.099-2.427-.43-.295-.881-.708-.834-1.222.045-.22.12-.432.223-.633.21-.524.218-1.106.02-1.635-.085-.225-.25-.462-.483-.489-.66-.078-.58.863-.678 1.222-.133.49-.373.533-.844.49-1.352-.143-2.703-.209-4.045-.458zM45.922 172.014c.011.97.34 1.91.936 2.671.182.227.409.413.666.545.384.16.8.227 1.214.196a9.699 9.699 0 0 0 3.404-.698 9.647 9.647 0 0 1 1.176-.45c.505-.105 1.016-.18 1.53-.224 2.026-.296 3.806-1.508 5.764-2.122a12.002 12.002 0 0 0 1.716-.572c.774-.37 1.401-.994 2.017-1.598.362-.325.674-.704.926-1.123.36-.68.382-1.49.397-2.261a.652.652 0 0 0-.059-.35.516.516 0 0 0-.22-.177c-.596-.298-1.302-.15-1.961-.032-2.382.43-4.82.35-7.24.27a1.05 1.05 0 0 1-1.113-.643l-.919-1.491c-.262-.428-.678-.917-1.154-.77-.38.116-.534.588-.52.993.015.405.138.808.062 1.203a1.64 1.64 0 0 1-.785 1.034 4.968 4.968 0 0 1-1.225.477c-1.353.388-2.926.828-3.973 1.837-.757.725-.686 2.328-.64 3.285z"/>
            <path fill="#FBBEBE" fill-rule="nonzero" d="M45.247 73.85c.535-.414.994-.92 1.357-1.495a6.15 6.15 0 0 0 .579-2.066l.39-2.495c.216-1.377.47-2.833 1.376-3.882.907-1.05 2.714-1.425 3.636-.388.402.45.561 1.07.66 1.67a12.265 12.265 0 0 1-2.936 10.064c-1.116 1.238-2.485 2.222-3.666 3.392-1.028 1.006-1.92 2.161-2.87 3.256a39.766 39.766 0 0 1-7.82 6.918c.035-1.871.271-3.88 0-5.738-.2-1.344-.745-2.069.54-2.947 2.982-2.053 5.99-3.91 8.754-6.29zM19.65 55.205c-.095 1.322-.637 2.675-1.715 3.438a132.86 132.86 0 0 1 9.036 3.585c-.574-.56-.748-1.417-.775-2.223-.076-2.105.642-4.176 1.691-5.991.167-.23.264-.505.277-.79-.034-.587-.72-.858-1.284-.995a31.16 31.16 0 0 0-5.862-.863c-.846-.027-1.848-.298-1.657.793.182 1.02.365 2.014.29 3.046z"/>
            <circle cx="25.777" cy="48.93" r="7.161" fill="#FBBEBE" fill-rule="nonzero"/>
            <path fill="#FF6584" fill-rule="nonzero" d="M33.218 68.367a8.786 8.786 0 0 0-.936-1.55c-1.337-1.895-2.71-3.788-4.426-5.358a27.539 27.539 0 0 0-4.202-3.046 9.59 9.59 0 0 0-2.63-1.246 10.414 10.414 0 0 0-1.688-.227l-1.915-.154a1.587 1.587 0 0 0-.505.015c-.52.13-.757.767-.646 1.283.111.515.505.934.853 1.325.086 3.859-1.653 7.666-1.887 11.52-.412 6.726 3.755 13.006 4.088 19.75.034.304.001.613-.096.904-.056.14-.139.266-.202.403-.197.424-.19.905-.225 1.37a6.923 6.923 0 0 1-2.076 4.39c.312.383.714.686 1.17.882.805.346 1.767.376 2.622.618 2.231.643 4.517 1.29 6.837 1.153a5.894 5.894 0 0 0 .527-1.96c.328-.202.707.229.757.608.05.378-.023.82.252 1.093.275.274.624.232.96.19 1.415-.177 2.775-.648 4.163-.965 1.388-.316 2.872-.468 4.222-.015.273-.34.156-.847-.066-1.22-.222-.374-.537-.703-.663-1.119a2.48 2.48 0 0 1-.081-.735c0-2.13.444-4.282.023-6.372-.124-.613-.32-1.21-.447-1.826-.252-1.194-.215-2.424-.182-3.642.033-1.219-.116-2.536-.141-3.772 0-.51-.035-1.02-.101-1.527-.086-.53-.252-1.049-.298-1.585-.136-1.36.42-2.71.336-4.075-.139-2.073-2.58-3.199-3.397-5.11z"/>
            <path fill="#FBBEBE" fill-rule="nonzero" d="M16.777 67.065c-1.75 4.695-2.606 9.675-3.461 14.62L11.338 93.3c-.56 3.282-1.124 6.585-1.102 9.915 0 .935.06 1.887-.183 2.79-.317 1.185-1.103 2.172-1.698 3.25a10.8 10.8 0 0 0-1.138 7.232c.203 1.037.757 2.215 1.798 2.335.855.095 1.594-.593 2.093-1.303 1.147-1.627 1.716-3.592 2.225-5.527a126.301 126.301 0 0 0 3.429-19.272c.061-.824.176-1.642.344-2.45.218-.833.497-1.649.835-2.44.756-1.897 1.514-3.793 2.272-5.69 1.748-4.382 3.505-8.785 5.905-12.84-2.373-.69-4.842-1.5-7.215-2.182-.685-.205-1.42-.083-2.126-.053z"/>
            <path fill="#FF6584" fill-rule="nonzero" d="M21.104 71.242c-1.642-.366-3.34-.253-5.016-.295a1.056 1.056 0 0 1-.675-.182c-.34-.3-.195-.864-.024-1.29l.811-2.02c.133-.417.355-.798.65-1.115.413-.379.994-.472 1.542-.54 1.78-.213 3.613-.283 5.34.214 1.728.497 3.352 1.628 4.125 3.302.322.697.471 1.575.043 2.209-.635.941-2.06 1.994-3.122 1.479-1.273-.616-2.248-1.441-3.674-1.762z"/>
            <path fill="#3F3D56" fill-rule="nonzero" d="M29.976 37.313a7.382 7.382 0 0 0-4.064 1.169 8.94 8.94 0 0 0-8.763-2.048 5.098 5.098 0 0 0-5.321-4.203 5.095 5.095 0 0 0-4.796 4.79 5.092 5.092 0 0 0 4.22 5.304 8.89 8.89 0 0 0 1.937 8.884 8.939 8.939 0 0 0 8.745 2.557 8.915 8.915 0 0 0 6.437-6.436 8.007 8.007 0 0 0 1.6.162c3.52 0 6.377-2.28 6.377-5.09s-2.856-5.089-6.372-5.089z"/>
            <path fill="#000" fill-rule="nonzero" d="M30.815 45.232a6.81 6.81 0 0 1-1.532-.17 9.755 9.755 0 0 1-1.119 2.693c.473.1.953.15 1.434.152 3.15 0 5.736-2.094 6.068-4.774-1.12 1.277-2.877 2.1-4.851 2.1zM20.965 51.55a8.902 8.902 0 0 1-7.134-3.585 8.788 8.788 0 0 1-1.348-7.831A5.048 5.048 0 0 1 8.29 35.17c0-.303.027-.605.082-.903A5.017 5.017 0 0 0 7.289 39.3a5.061 5.061 0 0 0 3.928 3.354c-1.422 4.642 1.196 9.554 5.859 10.992 4.663 1.437 9.618-1.14 11.088-5.768a8.871 8.871 0 0 1-7.199 3.67z" opacity=".1"/>
        </g>
    </g>
</svg>
