<?xml version="1.0" encoding="UTF-8"?>
<svg width="24px" height="24px" viewBox="0 0 24 24" version="1.1" xmlns="http://www.w3.org/2000/svg" xmlns:xlink="http://www.w3.org/1999/xlink">
    <!-- Generator: Sketch 63.1 (92452) - https://sketch.com -->
    <title>Group 166</title>
    <desc>Created with Sketch.</desc>
    <g id="Onboarding" stroke="none" stroke-width="1" fill="none" fill-rule="evenodd">
        <g id="Group-166" fill="#0080FF" fill-rule="nonzero">
            <g id="Group-9">
                <g id="Group-18">
                    <path d="M13.440201,17.6086154 L10.0882178,17.6086154 C9.77432365,17.6086154 9.48986808,17.7338576 9.2840565,17.9371339 C9.08035113,18.1383299 8.95384615,18.416142 8.95384615,18.7233276 L8.95384615,22.0327682 C8.95384615,22.3397831 9.08036974,22.6174827 9.28405942,22.8186117 C9.48987592,23.0218408 9.77432791,23.1470769 10.0882178,23.1470769 L13.440201,23.1470769 C13.7540909,23.1470769 14.0385429,23.0218408 14.2443594,22.8186117 C14.4480491,22.6174827 14.5745726,22.3397831 14.5745726,22.0327682 L14.5745726,18.7233276 C14.5745726,18.416142 14.4480677,18.1383299 14.2443623,17.9371339 C14.0385507,17.7338576 13.7540952,17.6086154 13.440201,17.6086154 Z" id="Shape" stroke="#0080FF" stroke-width="0.923076923"></path>
                    <path d="M21.7687682,17.6086154 L18.4589242,17.6086154 C18.1512441,17.6086154 17.872671,17.7333734 17.6710202,17.9350758 C17.4693491,18.1367985 17.3446154,18.4154806 17.3446154,18.7233276 L17.3446154,22.0327682 C17.3446154,22.340444 17.4693671,22.6190138 17.6710228,22.8206695 C17.8726785,23.0223252 18.1512483,23.1470769 18.4589242,23.1470769 L21.7687682,23.1470769 C22.076444,23.1470769 22.3550138,23.0223252 22.5566695,22.8206695 C22.7583252,22.6190138 22.8830769,22.340444 22.8830769,22.0327682 L22.8830769,18.7233276 C22.8830769,18.4154806 22.7583432,18.1367985 22.5566721,17.9350758 C22.3550213,17.7333734 22.0764482,17.6086154 21.7687682,17.6086154 Z" id="Shape" stroke="#0080FF" stroke-width="0.923076923"></path>
                    <path d="M21.7679562,9.30092308 L18.4581122,9.30092308 C18.1504321,9.30092308 17.871859,9.42568111 17.6702082,9.62738353 C17.4685372,9.82910621 17.3438034,10.1077883 17.3438034,10.4156353 L17.3438034,13.7250758 C17.3438034,14.0327517 17.4685551,14.3113215 17.6702108,14.5129772 C17.8718665,14.7146329 18.1504363,14.8393846 18.4581122,14.8393846 L21.7679562,14.8393846 C22.0756321,14.8393846 22.3542019,14.7146329 22.5558576,14.5129772 C22.7575132,14.3113215 22.882265,14.0327517 22.882265,13.7250758 L22.882265,10.4156353 C22.882265,10.1077883 22.7575312,9.82910621 22.5558602,9.62738353 C22.3542094,9.42568111 22.0756362,9.30092308 21.7679562,9.30092308 Z" id="Shape" stroke="#0080FF" stroke-width="0.923076923"></path>
                    <path d="M21.7687682,0.993230769 L18.4589242,0.993230769 C18.1512441,0.993230769 17.872671,1.1179888 17.6710202,1.31969123 C17.4693491,1.52141391 17.3446154,1.80009598 17.3446154,2.10794298 L17.3446154,5.41738354 C17.3446154,5.72505942 17.4693671,6.00362922 17.6710228,6.2052849 C17.8726785,6.40694058 18.1512483,6.53169231 18.4589242,6.53169231 L21.7687682,6.53169231 C22.076444,6.53169231 22.3550138,6.40694058 22.5566695,6.2052849 C22.7583252,6.00362922 22.8830769,5.72505942 22.8830769,5.41738354 L22.8830769,2.10794298 C22.8830769,1.80009598 22.7583432,1.52141391 22.5566721,1.31969123 C22.3550213,1.1179888 22.0764482,0.993230769 21.7687682,0.993230769 Z" id="Shape" stroke="#0080FF" stroke-width="0.923076923"></path>
                    <path d="M13.440201,9.30092308 L10.0882178,9.30092308 C9.77432365,9.30092308 9.48986808,9.42616533 9.2840565,9.62944159 C9.08035113,9.83063759 8.95384615,10.1084497 8.95384615,10.4156353 L8.95384615,13.7250758 C8.95384615,14.0320908 9.08036974,14.3097904 9.28405942,14.5109194 C9.48987592,14.7141485 9.77432791,14.8393846 10.0882178,14.8393846 L13.440201,14.8393846 C13.7540909,14.8393846 14.0385429,14.7141485 14.2443594,14.5109194 C14.4480491,14.3097904 14.5745726,14.0320908 14.5745726,13.7250758 L14.5745726,10.4156353 C14.5745726,10.1084497 14.4480677,9.83063759 14.2443623,9.62944159 C14.0385507,9.42616533 13.7540952,9.30092308 13.440201,9.30092308 Z" id="Shape" stroke="#0080FF" stroke-width="0.923076923"></path>
                    <path d="M5.04943178,17.1470769 C5.93073697,17.1470769 6.64534188,17.8526982 6.64534188,18.7233276 L6.64534188,22.0327682 C6.64534188,22.9029941 5.93073697,23.6086154 5.04943178,23.6086154 L1.69744856,23.6086154 C0.816143368,23.6086154 0.101538462,22.9029941 0.101538462,22.0327682 L0.101538462,18.7233276 C0.101538462,17.8526982 0.816143368,17.1470769 1.69744856,17.1470769 L5.04943178,17.1470769 Z" id="Shape"></path>
                </g>
            </g>
        </g>
    </g>
</svg>