<?xml version="1.0" encoding="UTF-8"?>
<svg width="400px" height="334px" viewBox="0 0 400 334" version="1.1" xmlns="http://www.w3.org/2000/svg" xmlns:xlink="http://www.w3.org/1999/xlink">
    <!-- Generator: Sketch 61.2 (89653) - https://sketch.com -->
    <title>undraw_questions_75e0</title>
    <desc>Created with Sketch.</desc>
    <defs>
        <linearGradient x1="50.0120973%" y1="100.018084%" x2="50.0120973%" y2="-0.0230630906%" id="linearGradient-1">
            <stop stop-color="#808080" stop-opacity="0.25" offset="0%"></stop>
            <stop stop-color="#808080" stop-opacity="0.12" offset="54%"></stop>
            <stop stop-color="#808080" stop-opacity="0.1" offset="100%"></stop>
        </linearGradient>
    </defs>
    <g id="Page-1" stroke="none" stroke-width="1" fill="none" fill-rule="evenodd">
        <g id="Help&amp;Support" transform="translate(-980.000000, -101.000000)" fill-rule="nonzero">
            <g id="undraw_questions_75e0" transform="translate(980.000000, 101.000000)">
                <ellipse id="Oval" fill="#0080FF" opacity="0.1" cx="284.262948" cy="329.346614" rx="40.8605578" ry="4.02788845"></ellipse>
                <path d="M175.111554,4.87649402 C193.10757,-1.812749 215.015936,3.94023904 233.7251,12.3306773 C292.486056,38.689243 335.294821,88.7250996 369.306773,139.701195 C381.621514,158.159363 393.318725,177.430279 397.948207,198.035857 C407.374502,239.976096 382.788845,283.394422 340.976096,298.609562 C326.756972,303.788845 311.135458,305.912351 295.49004,307.095618 C267.669323,309.203187 238.864542,308.366534 211.266932,300.561753 C191.585657,294.984064 172.968127,286.011952 155.111554,276.099602 C105.243028,248.40239 59.7011952,212.434263 26.9083665,168.498008 C12.5258964,149.227092 0.358565737,127.501992 0.00796812749,105.266932 C-0.342629482,83.0318725 14.1474104,60.689243 37.9880478,56.9083665 C47.8446215,55.3466135 58.2709163,56.9721116 68.4422311,58.6454183 C83.4183267,61.1115538 98.5976096,63.7051793 113.40239,62.6294821 C128.697211,61.5099602 148.589641,55.5338645 151.378486,40.9322709 C154.330677,25.2549801 157.139442,11.5577689 175.111554,4.87649402 Z" id="Path" fill="#0080FF" opacity="0.1"></path>
                <path d="M97.2191235,306.298805 C97.2191235,306.298805 116.446215,305.139442 114.179283,318.613546 C114.179283,318.613546 114.629482,321.003984 112.47012,322.075697 C112.47012,322.075697 112.438247,321.075697 110.498008,321.414343 C109.808832,321.532787 109.107874,321.567568 108.410359,321.517928 C107.467047,321.452606 106.57063,321.082012 105.856574,320.462151 L105.856574,320.462151 C105.856574,320.462151 100.450199,318.231076 98.3505976,309.394422 C98.3505976,309.394422 96.7928287,307.47012 96.8565737,306.972112 L100.099602,308.358566 C100.099602,308.358566 98.9920319,310.701195 99.8645418,312.645418 C99.8645418,312.645418 99.9681275,308.446215 100.593625,308.541833 C100.717131,308.561753 102.278884,309.338645 102.278884,309.338645 C102.278884,309.338645 100.370518,313.414343 101.808765,316.378486 C101.808765,316.378486 101.262948,311.354582 102.87251,309.633466 L105.159363,310.968127 C105.159363,310.968127 102.928287,315.179283 104.442231,318.613546 C104.442231,318.613546 104.043825,313.342629 105.63745,311.290837 L107.709163,312.884462 C107.709163,312.884462 105.613546,317.035857 106.89243,319.888446 C106.89243,319.888446 107.055777,313.749004 108.155378,313.286853 C108.155378,313.286853 109.968127,314.880478 110.243028,315.541833 C110.243028,315.541833 108.808765,318.553785 109.697211,320.143426 C109.697211,320.143426 110.243028,316.055777 110.693227,316.035857 C110.693227,316.035857 112.494024,318.74502 112.685259,320.601594 C112.685259,320.601594 112.605578,317.840637 111.12749,315.776892 C111.12749,315.776892 112.87251,316.075697 113.89243,317.207171 C113.89243,317.207171 113.609562,315.290837 110.685259,315.123506 C110.685259,315.123506 109.195219,313.071713 108.792829,312.944223 C108.792829,312.944223 111.705179,312.701195 113.47012,313.486056 C113.47012,313.486056 111.916335,311.677291 108.258964,312.498008 L106.215139,310.832669 C106.215139,310.832669 110.051793,310.306773 111.673307,310.888446 C111.673307,310.888446 109.804781,309.294821 105.665339,310.454183 L103.442231,309.123506 C103.442231,309.123506 106.709163,308.418327 108.657371,308.673307 C108.657371,308.673307 106.601594,307.565737 102.788845,308.76494 L101.195219,308.051793 C101.195219,308.051793 103.585657,307.581673 104.290837,307.505976 C104.996016,307.430279 105.027888,307.239044 105.027888,307.239044 C103.511375,306.984927 101.954075,307.157348 100.52988,307.737052 C100.52988,307.737052 97.1593625,306.52988 97.2191235,306.298805 Z" id="Path" fill="#0080FF"></path>
                <ellipse id="Oval" fill="#0080FF" opacity="0.1" cx="110.462151" cy="323.250996" rx="13.6095618" ry="2.29880478"></ellipse>
                <path d="M71.4621514,297.23506 C71.4621514,297.23506 82.3027888,296.581673 81.0239044,304.179283 C81.1624853,304.96958 80.7743092,305.758818 80.063745,306.131474 C80.063745,306.131474 80.0438247,305.569721 78.9521912,305.760956 C78.5641591,305.827349 78.1694682,305.84608 77.7768924,305.816733 C77.2437151,305.783859 76.736495,305.575086 76.3346614,305.223108 L76.3346614,305.223108 C76.3346614,305.223108 73.2908367,303.960159 72.0956175,298.98008 C72.0956175,298.98008 71.2191235,297.89243 71.250996,297.613546 L73.0836653,298.410359 C73.0836653,298.410359 72.4581673,299.733068 72.9482072,300.828685 C72.9482072,300.828685 73.0079681,298.458167 73.3466135,298.513944 C73.4183267,298.513944 74.2988048,298.972112 74.2988048,298.972112 C74.2988048,298.972112 73.2231076,301.270916 74.0358566,302.956175 C74.0358566,302.956175 73.7250996,300.123506 74.6334661,299.151394 L75.9203187,299.904382 C75.9203187,299.904382 74.6653386,302.294821 75.5219124,304.215139 C75.5219124,304.215139 75.3027888,301.243028 76.1952191,300.087649 L77.3625498,300.996016 C77.3625498,300.996016 76.1673307,303.334661 76.9043825,304.944223 C76.9043825,304.944223 76.9960159,301.482072 77.6175299,301.223108 C77.6175299,301.223108 78.6374502,302.123506 78.7928287,302.494024 C78.7928287,302.494024 77.9960159,304.191235 78.4860558,305.087649 C78.4860558,305.087649 78.7928287,302.784861 79.0478088,302.772908 C79.0478088,302.772908 80.063745,304.298805 80.1673307,305.346614 C80.1165217,304.378833 79.8144346,303.440989 79.2908367,302.625498 C79.8769637,302.732691 80.4186642,303.009775 80.8486056,303.422311 C80.8486056,303.422311 80.6932271,302.342629 79.0398406,302.247012 C79.0398406,302.247012 78.1992032,301.087649 77.9760956,301.01992 C77.9760956,301.01992 79.6175299,300.880478 80.6135458,301.322709 C80.6135458,301.322709 79.7370518,300.302789 77.6733068,300.76494 L76.5219124,299.824701 C76.5219124,299.824701 78.685259,299.52988 79.6015936,299.856574 C79.6015936,299.856574 78.5458167,298.956175 76.2111554,299.613546 L74.9601594,298.860558 C75.9238995,298.650009 76.9109214,298.565637 77.8964143,298.609562 C77.8964143,298.609562 76.7410359,297.984064 74.5896414,298.661355 L73.6932271,298.262948 C73.6932271,298.262948 75.0438247,297.996016 75.438247,297.956175 C75.8326693,297.916335 75.8565737,297.804781 75.8565737,297.804781 C75.0007339,297.662906 74.1223224,297.760814 73.3187251,298.087649 C73.3187251,298.087649 71.4302789,297.366534 71.4621514,297.23506 Z" id="Path" fill="#0080FF"></path>
                <ellipse id="Oval" fill="#0080FF" opacity="0.1" cx="78.9282869" cy="306.788845" rx="7.67330677" ry="1.29880478"></ellipse>
                <path d="M338.159363,304.537849 C338.159363,304.537849 351.247012,303.741036 349.713147,312.904382 C349.873975,313.859096 349.405203,314.809483 348.549801,315.262948 C348.549801,315.262948 348.525896,314.581673 347.207171,314.812749 C346.73754,314.892659 346.25996,314.915401 345.784861,314.880478 C345.142781,314.838768 344.532313,314.58674 344.047809,314.163347 L344.047809,314.163347 C344.047809,314.163347 340.366534,312.645418 338.936255,306.629482 C338.936255,306.629482 337.876494,305.318725 337.920319,304.984064 L340.12749,305.924303 C340.12749,305.924303 339.374502,307.517928 339.968127,308.844622 C339.968127,308.844622 340.039841,305.984064 340.462151,306.055777 C340.549801,306.055777 341.609562,306.605578 341.609562,306.605578 C341.609562,306.605578 340.310757,309.394422 341.290837,311.386454 C341.290837,311.386454 340.920319,307.968127 342.015936,306.796813 L343.569721,307.701195 C343.569721,307.701195 342.051793,310.569721 343.083665,312.908367 C343.083665,312.908367 342.816733,309.322709 343.880478,307.924303 L345.290837,309.023904 C345.290837,309.023904 343.864542,311.848606 344.733068,313.804781 C344.733068,313.804781 344.848606,309.629482 345.59761,309.310757 C345.59761,309.310757 346.828685,310.398406 347.015936,310.844622 C347.015936,310.844622 346.039841,312.896414 346.645418,313.98008 C346.645418,313.98008 347.015936,311.191235 347.322709,311.191235 C347.322709,311.191235 348.549801,313.035857 348.677291,314.298805 C348.617959,313.131117 348.253967,311.999307 347.621514,311.015936 C348.329614,311.149985 348.983176,311.487843 349.501992,311.988048 C349.501992,311.988048 349.310757,310.685259 347.314741,310.569721 C347.314741,310.569721 346.302789,309.171315 346.031873,309.087649 C346.031873,309.087649 348.023904,308.920319 349.219124,309.454183 C349.219124,309.454183 348.159363,308.227092 345.669323,308.784861 L344.278884,307.649402 C344.278884,307.649402 346.888446,307.290837 347.996016,307.685259 C347.996016,307.685259 346.721116,306.59761 343.904382,307.390438 L342.390438,306.486056 C342.390438,306.486056 344.613546,306.007968 345.940239,306.179283 C345.940239,306.179283 344.541833,305.426295 341.956175,306.243028 L340.87251,305.756972 C340.87251,305.756972 342.501992,305.434263 342.98008,305.386454 C343.458167,305.338645 343.482072,305.203187 343.482072,305.203187 C342.450456,305.031071 341.391321,305.148293 340.422311,305.541833 C340.422311,305.541833 338.119522,304.689243 338.159363,304.537849 Z" id="Path" fill="#0080FF"></path>
                <ellipse id="Oval" fill="#0080FF" opacity="0.1" cx="347.171315" cy="316.079681" rx="9.26294821" ry="1.56573705"></ellipse>
                <path d="M325.119522,207.816733 C324.868502,206.413951 324.723338,204.994277 324.685259,203.569721 C324.685259,201.860558 322.36255,200.346614 322.36255,200.346614 C322.36255,200.346614 320.928287,197.027888 319.972112,196.537849 C319.015936,196.047809 316.063745,191.705179 316.063745,191.705179 C316.029785,190.848555 315.717928,190.02626 315.175299,189.36255 C314.290882,188.199828 313.483066,186.980785 312.756972,185.713147 C312.358566,185.227092 312.557769,184.884462 311.960159,182.051793 C311.928287,181.904382 311.89243,181.760956 311.848606,181.625498 C311.848606,181.561753 311.808765,181.505976 311.784861,181.442231 C313.078932,180.144121 313.516911,178.220421 312.912351,176.49004 C312.804981,176.152807 312.609705,175.850267 312.346614,175.613546 C311.673307,175.063745 310.59761,175.290837 309.904382,174.768924 L310.641434,171.50996 C310.816733,170.713147 310.908367,169.705179 310.211155,169.2749 C309.949571,169.150752 309.674026,169.058458 309.390438,169 C308.195219,168.601594 307.501992,167.338645 307.191235,166.123506 C306.892503,164.953033 306.811475,163.737618 306.952191,162.537849 C307.087649,161.38247 307.426295,160.258964 307.549801,159.099602 C307.774492,156.955229 307.258518,154.798542 306.087649,152.988048 C305.632288,152.206768 304.961432,151.57326 304.155378,151.163347 C303.418327,150.832669 302.561753,150.76494 301.87251,150.366534 C300.390438,149.422311 300.466135,147.179283 299.282869,145.89243 C298.099602,144.605578 296.003984,144.609562 294.278884,145.051793 C292.553785,145.494024 290.836653,146.247012 289.067729,146.059761 C287.928287,145.932271 286.860558,145.414343 285.717131,145.294821 C285.389991,145.263738 285.060112,145.278488 284.737052,145.338645 L284.737052,145.302789 C283.89243,145.454183 283.115538,145.924303 282.916335,146.7251 C282.871618,146.915592 282.852856,147.111254 282.860558,147.306773 C282.860558,147.772908 282.972112,148.258964 282.98008,148.705179 C283.009805,149.063319 282.893408,149.418256 282.657371,149.689243 C282.430279,149.932271 282.095618,150.059761 281.860558,150.310757 C281.666879,150.504689 281.561675,150.769861 281.569721,151.043825 C281.569721,151.752988 282.454183,152.378486 283.047809,152.665339 L283.071713,152.665339 C282.912351,152.824701 282.752988,152.992032 282.605578,153.163347 C280.903725,155.085275 279.965388,157.564355 279.968127,160.131474 C279.997659,164.368897 282.539394,168.18463 286.438247,169.844622 L286.354582,170.103586 C286.186812,170.615825 285.991304,171.118559 285.768924,171.609562 C284.934614,171.328956 284.018978,171.431018 283.266932,171.888446 C282.12749,172.685259 279.900398,172.621514 279.306773,172.474104 C278.713147,172.326693 272.533865,171.545817 272.035857,171.741036 C271.537849,171.936255 270.553785,171.059761 269.912351,172.231076 C269.270916,173.40239 268.972112,174.035857 268.318725,174.330677 C267.665339,174.625498 266.537849,175.549801 266.689243,175.74502 C266.840637,175.940239 265.055777,177.111554 265.055777,177.111554 C265.055777,177.111554 263.521912,178.705179 262.633466,178.916335 C261.74502,179.12749 259.864542,180.334661 259.864542,180.334661 L257.685259,182.039841 C257.685259,182.039841 256.055777,182.286853 256.549801,181.163347 C257.043825,180.039841 255.657371,178.625498 255.657371,178.625498 C255.657371,178.625498 252.888446,173.011952 252.888446,171.85259 C252.888446,170.693227 250.613546,165.749004 250.613546,165.749004 L250.334661,165.721116 L250.207171,165.358566 C249.788845,164.183267 249.247012,162.741036 248.832669,161.896414 C248.035857,160.282869 247.545817,160.115538 247.545817,160.115538 C247.545817,160.115538 237.952191,152.912351 231.721116,155.10757 C225.49004,157.302789 243.095618,163.844622 244.677291,164.52988 C245.231076,164.768924 245.629482,165.541833 245.908367,166.446215 C244.504857,167.123042 243.323265,168.185783 242.501992,169.50996 C242.501992,169.50996 246.310757,177.952191 246.410359,180.051793 C246.50996,182.151394 249.031873,188.01992 249.031873,188.01992 C249.031873,188.01992 249.972112,192.366534 255.063745,192.119522 C255.063745,192.119522 262.087649,193.410359 263.621514,192.119522 C265.155378,190.828685 266.537849,189.816733 267.282869,189.669323 C267.83081,189.48928 268.312303,189.14932 268.665339,188.693227 C268.665339,188.693227 266.342629,203.334661 265.203187,204.605578 C264.063745,205.876494 253.996016,222.314741 257.609562,225.25498 C260.471427,227.471003 263.495892,229.468668 266.657371,231.231076 C266.964143,231.38247 267.884462,229.848606 269.199203,228.760956 C269.199203,229.035857 269.199203,229.314741 269.199203,229.609562 C269.223108,235.458167 269.996016,244.350598 271.063745,246.342629 C272.657371,249.270916 272.003984,254.932271 272.003984,254.932271 C272.841866,255.326589 273.751709,255.544897 274.677291,255.573705 C274.7251,255.76494 274.780876,255.972112 274.832669,256.171315 C275.705179,259.466135 277.119522,264.561753 277.840637,265.916335 C278.928287,267.968127 279.717131,274.462151 279.717131,274.462151 C279.717131,274.462151 280.36255,280.836653 280.115538,281.733068 C280.01992,282.071713 280.438247,284.7251 281.095618,288.10757 L281.095618,288.10757 C280.697211,292.685259 279.940239,301.50996 279.812749,304.701195 L279.812749,304.701195 C279.812749,304.760956 279.812749,304.820717 279.812749,304.876494 L279.812749,304.932271 C279.814734,304.9681 279.814734,305.004012 279.812749,305.039841 C279.812749,305.111554 279.812749,305.175299 279.812749,305.23506 L279.812749,305.23506 C279.800388,305.435884 279.808397,305.637443 279.836653,305.836653 C279.886021,306.140547 279.862813,306.451808 279.768924,306.74502 C279.487033,307.627259 279.128426,308.483117 278.697211,309.302789 C278.515567,309.7055 278.355968,310.117796 278.219124,310.537849 C277.820717,310.713147 277.334661,311.139442 277.063745,312.179283 C276.569721,314.083665 275.828685,319.350598 275.828685,319.350598 C275.828685,319.350598 275.52988,322.573705 274.940239,323.306773 C274.350598,324.039841 273.74502,328.625498 277.956175,329.211155 C282.167331,329.796813 283.988048,326.98008 283.988048,326.98008 L283.840637,314.199203 L283.840637,314.175299 C283.925742,314.067843 283.999195,313.951654 284.059761,313.828685 L284.059761,313.796813 C284.087649,313.737052 284.119522,313.673307 284.14741,313.601594 L284.183267,313.505976 L284.247012,313.350598 C284.24472,313.332076 284.24472,313.313342 284.247012,313.294821 C284.655656,312.070612 284.778317,310.769038 284.605578,309.49004 L284.605578,309.426295 L284.605578,309.326693 C284.605578,309.294821 284.605578,309.258964 284.605578,309.227092 L284.605578,309.027888 C284.605578,309.003984 284.605578,308.976096 284.605578,308.952191 C284.605578,308.867198 284.613546,308.779548 284.629482,308.689243 C284.629482,308.689243 284.629482,308.657371 284.629482,308.641434 L284.653386,308.486056 L284.653386,308.418327 C284.653386,308.366534 284.653386,308.314741 284.685259,308.258964 C284.683745,308.245727 284.683745,308.232361 284.685259,308.219124 C284.7251,308.035857 284.772908,307.820717 284.824701,307.645418 L284.824701,307.601594 L284.884462,307.410359 L284.884462,307.410359 C284.944223,307.207171 285.011952,307.011952 285.083665,306.796813 L285.083665,306.756972 C285.083665,306.693227 285.12749,306.629482 285.151394,306.569721 L285.151394,306.545817 C285.223108,306.350598 285.298805,306.14741 285.370518,305.98008 L285.390438,305.928287 L285.454183,305.768924 L285.474104,305.721116 L285.625498,305.366534 L285.625498,305.366534 L286.792829,308.972112 C286.792829,308.972112 287.438247,311.657371 287.091633,312.290837 C286.74502,312.924303 287.49004,315.561753 287.98008,315.609562 L287.521912,318.928287 C287.274238,320.758183 287.126608,322.600231 287.079681,324.446215 C287.047809,324.657371 287.015936,324.844622 286.992032,324.972112 C286.673307,326.673307 287.438247,329.310757 287.438247,329.310757 C291.342629,333.928287 295.996016,329.669323 295.996016,329.669323 C295.996016,329.669323 296.537849,327.227092 295.996016,326.741036 C295.454183,326.25498 295.697211,324.494024 295.697211,324.494024 C295.697211,324.494024 295.944223,320.14741 295.992032,316.976096 C296.039841,313.804781 293.398406,311 293.398406,311 L293.250996,311.131474 C292.768924,309.888446 292.219124,308.438247 292.334661,307.788845 C292.533865,306.665339 291.788845,294.804781 291.788845,294.804781 C292.064145,291.625198 292.122713,288.430565 291.964143,285.243028 L291.964143,285.243028 C292.027888,284.705179 292.087649,284.175299 292.14741,283.649402 C292.446215,281.099602 292.689243,278.920319 292.784861,277.776892 L292.784861,277.776892 L292.784861,277.641434 C292.808765,277.334661 292.820717,277.115538 292.816733,277.011952 C292.816733,276.613546 292.816733,276.159363 292.856574,275.661355 C292.948207,274.290837 293.163347,272.76494 293.163347,272.76494 L294.199203,266.466135 C294.199203,266.466135 294.996016,263.390438 296.131474,261.685259 L296.266932,261.47012 L296.266932,261.47012 C296.310757,261.394422 296.354582,261.310757 296.40239,261.223108 L296.422311,261.187251 C296.466135,261.103586 296.513944,261.015936 296.557769,260.924303 L296.577689,260.888446 C296.737052,260.573705 296.908367,260.211155 297.087649,259.812749 C297.087649,259.780876 297.115538,259.752988 297.12749,259.721116 L297.262948,259.418327 C297.262948,259.378486 297.294821,259.338645 297.314741,259.298805 C297.334661,259.258964 297.398406,259.095618 297.442231,258.996016 C297.461885,258.955891 297.479179,258.914652 297.494024,258.87251 C297.545817,258.752988 297.601594,258.629482 297.653386,258.501992 L297.729084,258.318725 C297.76494,258.227092 297.804781,258.135458 297.844622,258.043825 L297.940239,257.800797 C297.968127,257.741036 297.992032,257.681275 298.015936,257.621514 L298.123506,257.346614 C298.123506,257.306773 298.159363,257.262948 298.175299,257.223108 C298.458167,256.517928 298.729084,255.820717 298.972112,255.187251 L298.972112,255.187251 C299.047809,254.988048 299.123506,254.788845 299.191235,254.613546 C301.7251,254.768924 303.446215,254.908367 303.446215,254.908367 C303.446215,254.908367 304.243028,249.199203 303.988048,245.442231 C303.820717,242.876494 304.298805,239.649402 304.613546,237.87251 C304.649402,237.677291 304.681275,237.501992 304.713147,237.342629 L304.780876,237.398406 C306.01992,238.374502 306.908367,235.151394 306.908367,235.151394 C306.908367,235.151394 306.573705,232.143426 306.111554,228.498008 L306.063745,228.135458 C306.777797,228.287765 307.500146,228.39818 308.227092,228.466135 C308.227092,228.466135 308.625498,228.430279 309.171315,228.36255 C310.681203,229.236633 312.274807,229.957359 313.928287,230.513944 L316.561753,225.653386 C317.056644,224.645781 317.636427,223.682141 318.294821,222.772908 C319.091633,221.796813 321.904382,218.673307 321.856574,218.087649 C321.808765,217.501992 322.796813,214.131474 323.784861,212.61753 C324.772908,211.103586 325.167331,208.059761 325.119522,207.816733 Z M314.139442,211.525896 C313.099602,211.964143 312.111554,214.406375 312.063745,215.139442 C312.015936,215.87251 310.924303,219.091633 309.788845,219.482072 C308.741036,219.840637 306.741036,221.681275 306.422311,221.976096 C306.095618,222.003984 305.7251,222.047809 305.338645,222.111554 C304.904382,219.031873 304.474104,216.482072 304.199203,215.968127 C303.40239,214.501992 305.071713,209.816733 305.071713,209.816733 C305.071713,209.816733 305.23506,205.083665 306.266932,203.960159 C307.298805,202.836653 307.063745,200.003984 307.063745,200.003984 C307.063745,200.003984 307.310757,198.832669 307.410359,198.298805 C307.50996,197.76494 308.880478,198.298805 308.89243,198.298805 L308.89243,198.298805 C308.89243,198.298805 311.561753,199.760956 311.960159,201.956175 C312.358566,204.151394 315.2749,207.960159 315.2749,207.960159 C315.2749,207.960159 314.828685,209.278884 315.2749,209.952191 C315.721116,210.625498 315.179283,211.087649 314.139442,211.525896 L314.139442,211.525896 Z" id="Shape" fill="url(#linearGradient-1)"></path>
                <path d="M242.613546,169.808765 C244.273982,167.070099 247.412761,165.591734 250.581673,166.055777 L250.581673,171.756972 L247.119522,171.756972 L244.410359,171.071713 L242.613546,169.808765 Z" id="Path" fill="#4C4981"></path>
                <path d="M242.613546,169.808765 C244.273982,167.070099 247.412761,165.591734 250.581673,166.055777 L250.581673,171.756972 L247.119522,171.756972 L244.410359,171.071713 L242.613546,169.808765 Z" id="Path" fill="#000000" opacity="0.1"></path>
                <path d="M250.840637,167.565737 L246.59761,170.537849 C246.59761,170.537849 246.561753,169.944223 246.454183,169.131474 C246.243028,167.593625 245.768924,165.286853 244.74502,164.840637 C243.187251,164.155378 225.844622,157.629482 231.996016,155.434263 C238.14741,153.239044 247.585657,160.434263 247.585657,160.434263 C247.585657,160.434263 248.071713,160.601594 248.848606,162.207171 C249.247012,163.051793 249.792829,164.49004 250.203187,165.665339 C250.581673,166.7251 250.840637,167.565737 250.840637,167.565737 Z" id="Path" fill="#AE6E79"></path>
                <polygon id="Path" fill="#4C4981" points="284.737052 172.143426 285.219124 171.916335 286.573705 173.462151 285.466135 175.824701 283.577689 175.067729 284.015936 173.179283"></polygon>
                <path d="M278.318725,310.513944 C278.318725,310.513944 277.099602,310.370518 276.613546,312.270916 C276.12749,314.171315 275.394422,319.442231 275.394422,319.442231 C275.394422,319.442231 275.103586,322.657371 274.517928,323.390438 C273.932271,324.123506 273.350598,328.701195 277.49004,329.282869 C281.629482,329.864542 283.434263,327.055777 283.434263,327.055777 L283.286853,314.278884 L278.318725,310.513944 Z" id="Path" fill="#444053"></path>
                <path d="M292.76494,311.087649 C292.76494,311.087649 295.370518,313.876494 295.322709,317.039841 C295.2749,320.203187 295.027888,324.541833 295.027888,324.541833 C295.027888,324.541833 294.788845,326.298805 295.322709,326.784861 C295.856574,327.270916 295.322709,329.709163 295.322709,329.709163 C295.322709,329.709163 290.741036,333.960159 286.89243,329.350598 C286.89243,329.350598 286.143426,326.717131 286.454183,325.01992 C286.76494,323.322709 287.633466,315.693227 287.633466,315.693227 L292.76494,311.087649 Z" id="Path" fill="#444053"></path>
                <path d="M299.219124,252.828685 C299.219124,252.828685 296.589641,260.183267 295.466135,261.888446 C294.342629,263.593625 293.569721,266.669323 293.569721,266.669323 L292.545817,272.952191 C292.345931,274.356971 292.231511,275.772589 292.203187,277.191235 C292.250996,278.605578 289.669323,299.211155 289.669323,299.211155 L285.577689,304.426295 C285.577689,304.426295 283.776892,308.079681 284.067729,309.605578 C284.358566,311.131474 283.87251,313.553785 283.270916,314.282869 C283.270916,314.282869 283.175299,319.063745 283.027888,320.12749 C282.880478,321.191235 283.565737,324.223108 283.027888,324.756972 C282.49004,325.290837 275.330677,325.051793 275.135458,324.171315 C274.940239,323.290837 276.011952,319.055777 276.011952,319.055777 L276.645418,314.964143 C276.645418,314.964143 277.912351,312.7251 277.621514,311.992032 C277.330677,311.258964 278.155378,309.557769 278.203187,309.410359 C278.250996,309.262948 279.569721,306.876494 279.326693,305.952191 C279.083665,305.027888 280.860558,285.370518 280.860558,285.370518 L285.876494,250.14741 L299.219124,252.828685 Z" id="Path" fill="#AE6E79"></path>
                <path d="M299.219124,252.828685 C299.219124,252.828685 298.820717,253.936255 298.2749,255.390438 C297.406375,257.685259 296.155378,260.844622 295.466135,261.888446 C294.346614,263.593625 293.565737,266.669323 293.565737,266.669323 L292.541833,272.956175 C292.343938,274.361109 292.230851,275.776687 292.203187,277.195219 C292.203187,277.752988 291.828685,281.310757 291.350598,285.410359 C290.613546,291.677291 289.669323,299.215139 289.669323,299.215139 L285.577689,304.430279 C285.577689,304.430279 285.370518,304.828685 285.111554,305.458167 C284.59761,306.653386 283.87251,308.593625 284.067729,309.593625 C284.358566,311.103586 283.87251,313.537849 283.270916,314.270916 C283.270916,314.270916 283.171315,319.051793 283.027888,320.115538 C282.884462,321.179283 283.565737,324.207171 283.027888,324.74502 C282.49004,325.282869 275.330677,325.039841 275.135458,324.163347 C274.940239,323.286853 276.011952,319.047809 276.011952,319.047809 L276.645418,314.952191 C276.645418,314.952191 277.912351,312.713147 277.61753,311.98008 C277.322709,311.247012 278.155378,309.545817 278.203187,309.398406 C278.250996,309.250996 279.569721,306.864542 279.326693,305.940239 C279.139442,305.23506 280.123506,293.693227 280.581673,288.219124 C280.737052,286.498008 280.836653,285.378486 280.836653,285.378486 L285.151394,255.075697 L285.501992,252.633466 L285.85259,250.155378 L299.219124,252.828685 Z" id="Path" fill="#000000" opacity="0.1"></path>
                <path d="M294.836861,326.099602 C294.880478,326.63745 287.964143,327.418327 286.976096,326.832669 C285.988048,326.247012 286.976096,318.988048 286.976096,318.988048 L287.426295,315.677291 C286.944223,315.625498 286.211155,312.996016 286.549801,312.36255 C286.888446,311.729084 286.258964,309.051793 286.258964,309.051793 L285.111554,305.466135 L284.410359,303.270916 C283.270916,300.756972 281.621514,293.585657 280.59761,288.231076 C279.952191,284.868526 279.541833,282.219124 279.633466,281.880478 C279.876494,281.003984 279.23506,274.621514 279.23506,274.621514 C279.23506,274.621514 278.438247,268.139442 277.386454,266.095618 C276.673307,264.741036 275.282869,259.653386 274.422311,256.370518 C273.984064,254.685259 273.681275,253.474104 273.681275,253.474104 C273.681275,253.474104 281.043825,252.856574 285.50996,252.641434 C287.561753,252.541833 289.003984,252.52988 288.836653,252.697211 C288.669323,252.864542 288.625498,253.756972 288.633466,255.047809 C288.653386,258.390438 289.119522,264.270916 289.613546,265.85259 C290.294821,268.043825 290.976096,274.61753 290.685259,275.25498 C290.394422,275.89243 290.49004,280.12749 290.49004,280.12749 C290.992017,281.847951 291.281028,283.623497 291.350598,285.414343 C291.506406,288.587178 291.450505,291.766872 291.183267,294.932271 C291.183267,294.932271 291.912351,306.772908 291.717131,307.89243 C291.521912,309.011952 293.2749,312.521912 293.2749,313.203187 C293.2749,313.884462 293.760956,318.513944 293.760956,318.513944 C293.760956,318.513944 294.804781,325.565737 294.836861,326.099602 Z" id="Path" fill="#AE6E79"></path>
                <path d="M298.681275,183.788845 L297.844622,184.693227 L297.298805,185.282869 L294.111554,188.709163 L285.876494,189.63745 L281.494024,188.466135 L280.410359,188.175299 C280.410359,188.175299 280.410359,185.976096 280.605578,183.338645 C280.884462,179.956175 281.549801,175.848606 283.139442,174.729084 C283.935469,174.106008 284.570712,173.301366 284.992032,172.38247 C285.30998,171.748855 285.576443,171.09069 285.788845,170.414343 C285.820717,170.326693 285.844622,170.243028 285.87251,170.155378 C286.231029,168.97467 286.489577,167.765892 286.645418,166.541833 C286.645418,166.541833 287.697211,165.960159 289.159363,165.282869 C292.972112,163.501992 299.557769,161.043825 297.266932,166.541833 C296.930245,167.346989 296.642861,168.171887 296.406375,169.011952 C296.370518,169.135458 296.338645,169.258964 296.310757,169.378486 C295.545817,172.438247 296.051793,174.294821 296.621514,175.318725 L296.621514,175.318725 C296.717821,175.496081 296.828413,175.665299 296.952191,175.824701 C297.107811,176.03846 297.294462,176.227796 297.505976,176.386454 L298.454183,182.406375 L298.533865,182.904382 L298.681275,183.788845 Z" id="Path" fill="#AE6E79"></path>
                <path d="M297.270916,166.836653 C296.836653,167.880478 297.482072,165.984064 297.270916,166.836653 C295.533865,168.071713 291.442231,171.589641 289.143426,171.589641 C287.589641,171.589641 287.123506,171.306773 285.792829,170.705179 C286.195529,169.444437 286.482244,168.14955 286.649402,166.836653 C286.649402,166.836653 300.438247,159.23506 297.270916,166.836653 Z" id="Path" fill="#000000" opacity="0.1"></path>
                <path d="M300.780876,160.434263 C300.776475,165.868093 296.674526,170.423714 291.270916,170.996016 C290.904382,171.031873 290.533865,171.055777 290.159363,171.055777 C284.293262,171.055777 279.537849,166.300363 279.537849,160.434263 C279.537849,154.568163 284.293262,149.812749 290.159363,149.812749 C296.025463,149.812749 300.780876,154.568163 300.780876,160.434263 L300.780876,160.434263 Z" id="Path" fill="#AE6E79"></path>
                <path d="M302.290837,207.517928 L300.776892,211.466135 C300.776892,211.466135 299.545817,211.517928 297.625498,211.577689 C291.143426,211.784861 276.860558,212.047809 276.223108,210.38247 C276.080188,209.960023 276.004892,209.517654 276,209.071713 C275.916335,206.533865 277.099602,202.63745 277.099602,202.63745 C277.099602,202.63745 277.780876,194.840637 277.780876,194.501992 C277.780876,194.163347 277.195219,188.701195 277.195219,188.701195 L278.366534,184.318725 L281.629482,182.027888 C281.629482,182.027888 283.091633,184.270916 283.968127,184.462151 C284.844622,184.653386 286.015936,185.733068 286.015936,185.733068 C286.015936,185.733068 288.888446,187.486056 289.816733,186.50996 C290.74502,185.533865 297.952191,181.247012 297.952191,181.247012 L301.752988,185.438247 L302.290837,207.517928 Z" id="Path" fill="#000000" opacity="0.1"></path>
                <path d="M302.290837,208.123506 L300.776892,212.067729 C300.776892,212.067729 299.545817,212.123506 297.625498,212.183267 L297.438247,212.183267 C296.609562,212.211155 295.661355,212.239044 294.649402,212.258964 C289.498008,212.378486 282.40239,212.410359 278.693227,211.860558 C277.298805,211.661355 276.386454,211.374502 276.23506,210.984064 C276.151093,210.74926 276.09233,210.506194 276.059761,210.258964 C276.035857,210.075697 276.01992,209.860558 276.011952,209.673307 C275.928287,207.135458 277.111554,203.239044 277.111554,203.239044 C277.111554,203.239044 277.792829,195.442231 277.792829,195.103586 C277.792829,194.76494 277.207171,189.302789 277.207171,189.302789 L278.378486,184.920319 L280.621514,183.350598 L281.641434,182.633466 C281.984489,183.146997 282.358349,183.639267 282.760956,184.10757 C283.075406,184.52967 283.496043,184.860955 283.98008,185.067729 C284.860558,185.262948 286.027888,186.338645 286.027888,186.338645 C286.027888,186.338645 288.900398,188.091633 289.828685,187.115538 C290.533865,186.370518 294.916335,183.689243 296.940239,182.466135 C297.561753,182.087649 297.964143,181.85259 297.964143,181.85259 L298.474104,182.418327 L301.76494,186.043825 L302.290837,208.123506 Z" id="Path" fill="#FFFFFF"></path>
                <path d="M250.840637,167.565737 L246.59761,170.537849 C246.59761,170.537849 246.561753,169.944223 246.454183,169.131474 C248.549801,168.247012 249.824701,166.290837 250.191235,165.665339 C250.581673,166.7251 250.840637,167.565737 250.840637,167.565737 Z" id="Path" fill="#000000" opacity="0.1"></path>
                <path d="M265.749004,177.653386 L264.824701,177.406375 C264.824701,177.406375 263.310757,179 262.434263,179.211155 C261.557769,179.422311 259.709163,180.621514 259.709163,180.621514 L257.561753,182.326693 C257.561753,182.326693 255.968127,182.573705 256.442231,181.450199 C256.916335,180.326693 255.565737,178.916335 255.565737,178.916335 C255.565737,178.916335 252.836653,173.314741 252.836653,172.143426 C252.836653,170.972112 250.581673,166.055777 250.581673,166.055777 C250.581673,166.055777 247.752988,171.561753 242.589641,169.808765 C242.589641,169.808765 246.342629,178.23506 246.438247,180.330677 C246.533865,182.426295 249.01992,188.270916 249.01992,188.270916 C249.01992,188.270916 249.948207,192.609562 254.964143,192.366534 C254.964143,192.366534 261.884462,193.653386 263.394422,192.366534 C264.904382,191.079681 266.266932,190.067729 266.98008,189.920319 C267.693227,189.772908 268.342629,188.948207 268.342629,188.948207 L268.342629,183.155378 L265.749004,177.653386 Z" id="Path" fill="#4C4981"></path>
                <path d="M257.075697,183.155378 C257.075697,183.155378 258.294821,187.689243 257.513944,188.175299 L257.075697,183.155378 Z" id="Path" fill="#000000" opacity="0.1"></path>
                <path d="M297.625498,212.163347 C291.143426,212.370518 276.860558,212.629482 276.223108,210.968127 C276.080188,210.545681 276.004892,210.103311 276,209.657371 L297.175299,210.772908 L297.625498,212.163347 Z" id="Path" fill="#000000" opacity="0.1"></path>
                <path d="M299.219124,252.828685 C299.219124,252.828685 298.820717,253.936255 298.2749,255.390438 C295.585657,255.227092 292.023904,255.055777 288.641434,255.031873 C287.446215,255.031873 286.2749,255.031873 285.167331,255.071713 C282.816733,255.143426 280.784861,255.334661 279.49004,255.701195 C277.852903,256.205242 276.141755,256.42621 274.430279,256.354582 C273.992032,254.669323 273.689243,253.458167 273.689243,253.458167 C273.689243,253.458167 281.051793,252.840637 285.517928,252.625498 L285.868526,250.14741 L299.219124,252.828685 Z" id="Path" fill="#000000" opacity="0.1"></path>
                <path d="M304.920319,234.996016 L304.091633,236.749004 C304.091633,236.749004 303.976096,237.270916 303.828685,238.099602 C303.517928,239.884462 303.031873,243.103586 303.215139,245.669323 C303.458167,249.422311 302.677291,255.119522 302.677291,255.119522 C302.677291,255.119522 284.749004,253.609562 279.49004,255.119522 C274.231076,256.629482 271.641434,255.119522 271.641434,255.119522 C271.641434,255.119522 272.278884,249.47012 270.717131,246.545817 C269.653386,244.553785 268.904382,235.661355 268.880478,229.812749 C268.880478,227.115538 269.015936,225.071713 269.354582,224.657371 C270.426295,223.342629 275.003984,210.187251 275.003984,210.187251 L276.047809,210.243028 L278.836653,210.390438 L294.693227,211.227092 L297.183267,211.358566 L297.446215,212.155378 L304.920319,234.996016 Z" id="Path" fill="#444053"></path>
                <path d="M312.812749,229.14741 L312.960159,230.709163 C312.960159,230.709163 305.10757,228.151394 305.505976,225.007968 C305.904382,221.864542 305.505976,222.219124 305.505976,222.219124 L311.816733,222.752988 L312.812749,229.14741 Z" id="Path" fill="#4C4981"></path>
                <path d="M312.812749,229.14741 L312.960159,230.709163 C312.960159,230.709163 305.10757,228.151394 305.505976,225.007968 C305.904382,221.864542 305.505976,222.219124 305.505976,222.219124 L311.816733,222.752988 L312.812749,229.14741 Z" id="Path" fill="#000000" opacity="0.1"></path>
                <path d="M262.314741,184.414343 C263.116518,185.095562 264.061614,185.587176 265.079681,185.85259 C264.784902,185.788618 264.510913,185.651624 264.282869,185.454183 C263.721116,185.055777 263.187251,184.621514 262.645418,184.199203 C262.207171,183.856574 261.661355,183.286853 261.123506,183.14741 C261.47563,183.609842 261.874852,184.034432 262.314741,184.414343 Z" id="Path" fill="#000000" opacity="0.1"></path>
                <path d="M262.434263,186.466135 C262.68677,186.751295 262.891291,187.075569 263.039841,187.426295 C263.291238,188.417906 263.27612,189.458343 262.996016,190.442231 L261.737052,187.406375 C261.517928,186.888446 261.298805,186.370518 261.035857,185.876494 C260.920319,185.665339 260.195219,184.784861 260.278884,184.601594 C260.501992,184.083665 262.199203,186.175299 262.434263,186.466135 Z" id="Path" fill="#000000" opacity="0.1"></path>
                <path d="M297.561753,203.278884 C298.420077,203.174954 299.222729,202.799453 299.85259,202.207171 C298.557769,202.370518 297.330677,202.880478 296.055777,203.14741 C294.872088,203.422396 293.631245,203.307813 292.517928,202.820717 C293.984064,203.537849 296,203.561753 297.561753,203.278884 Z" id="Path" fill="#000000" opacity="0.1"></path>
                <path d="M293.900398,194.358566 C293.668302,194.393062 293.431983,194.33434 293.243028,194.195219 C292.270916,193.63745 291.312085,193.055777 290.366534,192.450199 C289.446215,191.856574 288.334661,191.25498 287.549801,190.505976 C289.482072,192.250996 291.282869,193.7251 293.900398,194.358566 Z" id="Path" fill="#000000" opacity="0.1"></path>
                <path d="M296.601594,204.693227 C297.112075,204.71635 297.623432,204.674853 298.123506,204.569721 C298.629404,204.464474 299.076507,204.171152 299.374502,203.749004 C299.193703,203.707292 299.003774,203.737281 298.844622,203.832669 C297.300866,204.482312 295.605665,204.685239 293.952191,204.418327 C294.74502,204.756972 295.760956,204.689243 296.601594,204.693227 Z" id="Path" fill="#000000" opacity="0.1"></path>
                <path d="M287.374502,227.314741 C286.36009,227.620577 285.317776,227.824769 284.262948,227.924303 C283.442068,227.962192 282.619587,227.946222 281.800797,227.876494 L277.816733,227.625498 L275.824701,227.498008 C275.589641,227.498008 274.629482,227.498008 275.103586,227.023904 C275.342629,226.792829 276.673307,226.940239 277.015936,226.928287 C277.677291,226.907039 278.341301,226.895086 279.007968,226.89243 C280.326693,226.89243 281.649402,226.89243 282.968127,226.972112 C284.446215,227.043825 285.900398,227.155378 287.374502,227.314741 Z" id="Path" fill="#000000" opacity="0.1"></path>
                <path d="M282.756972,229.286853 C282.079681,229.258964 281.207171,229.661355 280.50996,229.749004 C279.73005,229.841232 278.944086,229.871871 278.159363,229.840637 C276.606564,229.803365 275.072751,229.490397 273.629482,228.916335 C276.669323,229.071713 279.717131,229.163347 282.756972,229.286853 Z" id="Path" fill="#000000" opacity="0.1"></path>
                <path d="M274.223108,231.374502 C274.517786,231.434046 274.807988,231.513918 275.091633,231.613546 C276.772908,232.091633 278.561753,231.669323 280.270916,231.247012 C279.844622,231.888446 279.075697,232.163347 278.306773,232.338645 C277.056139,232.655499 275.752458,232.703029 274.482072,232.478088 C274.083665,232.398406 273.083665,232.25498 272.888446,231.840637 C272.561753,231.231076 273.848606,231.314741 274.223108,231.374502 Z" id="Path" fill="#000000" opacity="0.1"></path>
                <path d="M283.649402,234.517928 C284.153534,234.621105 284.65109,234.754141 285.139442,234.916335 C287.031873,235.386454 288.996016,234.741036 290.896414,234.306773 C293.180933,233.788014 295.523607,233.571025 297.864542,233.661355 C297.446215,233.661355 296.780876,234.027888 296.370518,234.151394 C295.832669,234.314741 295.286853,234.466135 294.741036,234.601594 C293.669323,234.864542 292.581673,235.079681 291.486056,235.23506 C289.274261,235.554842 287.035997,235.652274 284.804781,235.525896 C283.784861,235.47012 282.015936,235.573705 281.143426,235.059761 C281.897653,234.611567 282.777388,234.421354 283.649402,234.517928 L283.649402,234.517928 Z" id="Path" fill="#000000" opacity="0.1"></path>
                <path d="M284.36255,174.430279 C284.36255,174.430279 284.458167,178.916335 283.729084,180.964143 C283.498008,181.601594 283.139442,182.776892 282.749004,184.095618 C282.322709,185.557769 281.856574,187.195219 281.498008,188.478088 C281.139442,189.760956 280.900398,190.621514 280.900398,190.621514 C280.900398,190.621514 279.25498,204.023904 278.828685,210.410359 C278.828685,210.521912 278.828685,210.63745 278.804781,210.74502 C278.780876,211.103586 278.741036,211.478088 278.681275,211.864542 C277.733068,218.207171 272.262948,227.988048 270.426295,228.768924 C269.853558,229.03175 269.330581,229.391634 268.880478,229.832669 C268.880478,227.135458 269.015936,225.091633 269.354582,224.677291 C270.426295,223.36255 275.003984,210.207171 275.003984,210.207171 L276.047809,210.262948 C276.023904,210.079681 276.007968,209.864542 276,209.677291 C275.916335,207.139442 277.099602,203.243028 277.099602,203.243028 C277.099602,203.243028 277.780876,195.446215 277.780876,195.10757 C277.780876,194.768924 277.195219,189.306773 277.195219,189.306773 L278.366534,184.924303 L280.609562,183.354582 C280.888446,179.972112 281.553785,175.864542 283.143426,174.74502 C283.939453,174.121945 284.574696,173.317303 284.996016,172.398406 C285.310757,172.442231 284.737052,172.163347 284.737052,172.163347 L284.36255,174.430279 Z" id="Path" fill="#000000" opacity="0.1"></path>
                <path d="M285.219124,171.916335 C284.396812,171.63513 283.491736,171.737481 282.752988,172.195219 C281.629482,172.992032 279.438247,172.924303 278.85259,172.780876 C278.266932,172.63745 272.179283,171.85259 271.681275,172.047809 C271.183267,172.243028 270.219124,171.366534 269.585657,172.537849 C268.952191,173.709163 268.661355,174.338645 268.027888,174.629482 C267.394422,174.920319 266.270916,175.848606 266.434263,176.043825 C266.59761,176.239044 264.840637,177.406375 264.840637,177.406375 L268.394422,188.960159 C268.394422,188.960159 266.103586,203.573705 264.984064,204.840637 C263.864542,206.10757 253.924303,222.525896 257.482072,225.450199 C260.298691,227.664968 263.279365,229.662739 266.398406,231.426295 C266.796813,231.621514 268.199203,228.992032 270.14741,228.163347 C272.095618,227.334661 278.139442,216.370518 278.513944,210.135458 C278.888446,203.900398 280.609562,190.015936 280.609562,190.015936 C280.609562,190.015936 282.705179,182.414343 283.434263,180.366534 C284.163347,178.318725 284.067729,173.832669 284.067729,173.832669 L285.219124,171.916335 Z" id="Path" fill="#4C4981"></path>
                <path d="M304.920319,234.996016 L304.091633,236.749004 C304.091633,236.749004 303.976096,237.270916 303.828685,238.099602 C303.680951,238.080997 303.542181,238.01855 303.430279,237.920319 C302.211155,236.944223 295.063745,229.589641 294.709163,223.059761 C294.458167,218.243028 294.577689,214.091633 294.657371,212.243028 C294.681275,211.661355 294.705179,211.310757 294.705179,211.23506 L294.705179,211.23506 C294.705179,211.23506 300.258964,204.50996 299.625498,202.12749 C298.992032,199.74502 297.52988,186.988048 297.52988,186.988048 L297.314741,185.314741 L296.944223,182.486056 L296.059761,175.641434 L296.976096,175.856574 C297.131716,176.070332 297.318367,176.259669 297.52988,176.418327 L298.478088,182.438247 L301.768924,186.063745 L302.306773,208.135458 L300.792829,212.079681 C300.792829,212.079681 299.561753,212.135458 297.641434,212.195219 L297.454183,212.195219 L304.920319,234.996016 Z" id="Path" fill="#000000" opacity="0.1"></path>
                <path d="M307.988048,198.561753 C307.988048,198.561753 306.625498,198.023904 306.52988,198.561753 C306.434263,199.099602 306.187251,200.262948 306.187251,200.262948 C306.187251,200.262948 306.430279,203.091633 305.390438,204.211155 C304.350598,205.330677 304.195219,210.055777 304.195219,210.055777 C304.195219,210.055777 302.553785,214.733068 303.330677,216.195219 C303.613546,216.7251 304.051793,219.38247 304.49004,222.569721 C304.768924,224.561753 305.043825,226.749004 305.286853,228.749004 C305.729084,232.38247 306.059761,235.390438 306.059761,235.390438 C306.059761,235.390438 305.179283,238.605578 303.960159,237.629482 C302.741036,236.653386 295.593625,229.298805 295.243028,222.768924 C295.003984,218.183267 295.099602,214.199203 295.179283,212.23506 C295.211155,211.40239 295.243028,210.932271 295.243028,210.932271 C295.243028,210.932271 300.796813,204.207171 300.163347,201.820717 C299.52988,199.434263 298.067729,186.681275 298.067729,186.681275 L297.812749,184.709163 L297.537849,182.589641 L297.474104,182.123506 L296.593625,175.350598 L296.593625,175.350598 C296.749004,175.386454 302.215139,176.621514 302.936255,177.342629 C303.657371,178.063745 308.115538,179.095618 308.115538,179.095618 C309.484931,179.467199 310.544076,180.553814 310.880478,181.932271 C310.924303,182.067729 310.956175,182.211155 310.988048,182.358566 C311.573705,185.187251 311.386454,185.525896 311.784861,186.015936 C312.183267,186.505976 307.988048,198.561753 307.988048,198.561753 Z" id="Path" fill="#4C4981"></path>
                <path d="M305.318725,228.74502 C303.326693,228.346614 300.370518,227.426295 300.438247,225.394422 C300.498008,223.494024 302.784861,222.808765 304.517928,222.565737 C304.796813,224.549801 305.071713,226.74502 305.318725,228.74502 Z" id="Path" fill="#000000" opacity="0.1"></path>
                <path d="M311.498008,227.733068 C311.418327,227.904382 311.099602,228.051793 310.645418,228.183267 C309.579749,228.436882 308.497307,228.61396 307.406375,228.713147 C307.406375,228.713147 300.633466,228.175299 300.729084,225.103586 C300.800797,222.900398 303.860558,222.314741 305.577689,222.183267 C305.957762,222.147778 306.339406,222.13182 306.721116,222.135458 C306.721116,222.135458 311.788845,227.103586 311.498008,227.733068 Z" id="Path" fill="#AE6E79"></path>
                <path d="M311.498008,227.733068 C311.418327,227.904382 311.099602,228.051793 310.645418,228.183267 C308.880478,225.820717 306.418327,222.788845 305.211155,222.521912 L305.577689,222.183267 C305.957762,222.147778 306.339406,222.13182 306.721116,222.135458 C306.721116,222.135458 311.788845,227.103586 311.498008,227.733068 Z" id="Path" fill="#000000" opacity="0.1"></path>
                <path d="M309.792829,185.689243 L311.784861,185.984064 C312.504009,187.250943 313.30241,188.471165 314.175299,189.63745 C314.710566,190.302908 315.017834,191.122754 315.051793,191.976096 C315.051793,191.976096 317.976096,196.310757 318.900398,196.796813 C319.824701,197.282869 321.239044,200.59761 321.239044,200.59761 C321.239044,200.59761 323.52988,202.10757 323.52988,203.812749 C323.570491,205.234686 323.716979,206.651622 323.968127,208.051793 C324.01992,208.294821 323.629482,211.318725 322.653386,212.832669 C321.677291,214.346614 320.701195,217.685259 320.752988,218.282869 C320.804781,218.880478 318.023904,221.988048 317.247012,222.960159 C316.59856,223.869216 316.028135,224.831475 315.541833,225.836653 L312.960159,230.709163 C312.960159,230.709163 307.501992,222.669323 305.505976,222.231076 C305.505976,222.231076 307.74502,220.087649 308.864542,219.697211 C309.984064,219.306773 311.059761,216.111554 311.10757,215.36255 C311.155378,214.613546 312.131474,212.195219 313.151394,211.776892 C314.171315,211.358566 314.713147,210.900398 314.2749,210.215139 C313.836653,209.52988 314.2749,208.223108 314.2749,208.223108 C314.2749,208.223108 311.398406,204.422311 311.007968,202.247012 C310.61753,200.071713 307.988048,198.593625 307.988048,198.593625 L306.478088,194.888446 L309.792829,185.689243 Z" id="Path" fill="#4C4981"></path>
                <path d="M317.039841,203.876494 C318.142203,202.945715 319.529742,202.419941 320.972112,202.386454 C320.047809,202.545817 319.075697,202.749004 318.398406,203.394422 C318.132369,203.673865 317.893574,203.978029 317.685259,204.302789 C317.454183,204.633466 315.573705,207.023904 315.294821,206.645418 C314.828685,206.091633 316.661355,204.199203 317.039841,203.876494 Z" id="Path" fill="#000000" opacity="0.1"></path>
                <path d="M312.625498,201.569721 C313.232846,201.517322 313.764551,201.141016 314.015936,200.585657 C314.253457,200.036645 314.400125,199.452664 314.450199,198.856574 C314.592748,197.858952 314.793623,196.870539 315.051793,195.896414 C315.208753,195.506272 315.177911,195.065666 314.968127,194.701195 C314.861223,194.389965 314.716729,194.092948 314.537849,193.816733 C314.179283,194.215139 314.075697,195.143426 313.928287,195.677291 C313.74502,196.338645 313.577689,197.003984 313.418327,197.669323 C313.334661,197.988048 312.673307,201.569721 312.625498,201.569721 Z" id="Path" fill="#000000" opacity="0.1"></path>
                <path d="M310.900398,181.900398 C310.70405,182.157187 310.478048,182.389876 310.227092,182.593625 C309.430279,183.227092 308.374502,183.760956 308.2749,184.760956 C308.302664,185.085846 308.261946,185.412947 308.155378,185.721116 C307.900398,186.159363 307.2749,186.119522 306.776892,186.035857 C306.356625,185.997976 305.953874,185.849521 305.609562,185.605578 C305.087649,185.159363 305.039841,184.36255 304.641434,183.800797 C304.150765,183.21311 303.414295,182.88759 302.649402,182.920319 C301.904382,182.896414 301.163347,183.063745 300.418327,183.095618 C299.939468,183.119777 299.459429,183.087685 298.988048,183 C298.832439,182.976186 298.678179,182.944271 298.525896,182.904382 C298.192928,182.822403 297.867677,182.711764 297.553785,182.573705 C297.391341,182.509091 297.23301,182.434582 297.079681,182.350598 C296.58098,182.094501 296.118724,181.772932 295.705179,181.394422 C294.976096,180.7251 294.370518,179.800797 294.430279,178.808765 C294.466135,178.199203 294.741036,177.63745 294.828685,177.035857 C295.12749,175.314741 293.984064,173.689243 292.74502,172.458167 C292.250996,171.968127 291.7251,171.494024 291.231076,170.996016 C290.461808,170.286454 289.854407,169.419515 289.450199,168.454183 C289.117818,167.426665 289.009144,166.339921 289.131474,165.266932 C289.243415,164.179096 289.274045,163.084425 289.223108,161.992032 C288.856574,158.119522 285.549801,155.151394 282.243028,153.537849 L282.095618,153.462151 C284.772438,150.390145 288.971175,149.121005 292.901467,150.195897 C296.83176,151.270789 299.800224,154.50008 300.541094,158.506788 C301.281964,162.513495 299.664535,166.590753 296.378486,169 C296.342629,169.123506 296.310757,169.247012 296.282869,169.366534 C295.517928,172.426295 296.023904,174.282869 296.593625,175.306773 L296.593625,175.306773 C296.749004,175.342629 302.215139,176.577689 302.936255,177.298805 C303.657371,178.01992 308.115538,179.051793 308.115538,179.051793 C309.495756,179.419152 310.564365,180.512221 310.900398,181.900398 L310.900398,181.900398 Z" id="Path" fill="#000000" opacity="0.1"></path>
                <path d="M281.394422,150.653386 C281.613546,150.40239 281.944223,150.2749 282.167331,150.031873 C282.856574,149.282869 282.167331,148.059761 282.418327,147.071713 C282.689243,145.976096 284.035857,145.498008 285.159363,145.613546 C286.282869,145.729084 287.334661,146.247012 288.458167,146.374502 C290.203187,146.569721 291.89243,145.812749 293.593625,145.370518 C295.294821,144.928287 297.350598,144.904382 298.521912,146.207171 C299.693227,147.50996 299.613546,149.729084 301.071713,150.673307 C301.74502,151.10757 302.593625,151.155378 303.322709,151.47012 C304.120584,151.879579 304.782223,152.51215 305.227092,153.290837 C306.381242,155.103511 306.889439,157.252823 306.669323,159.390438 C306.545817,160.545817 306.211155,161.669323 306.075697,162.824701 C305.938205,164.024549 306.019194,165.23938 306.314741,166.410359 C306.621514,167.605578 307.286853,168.896414 308.478088,169.278884 C308.753418,169.339434 309.020805,169.431683 309.2749,169.553785 C309.964143,169.984064 309.87251,170.996016 309.697211,171.784861 L308.988048,175.055777 C309.669323,175.573705 310.729084,175.350598 311.378486,175.896414 C311.638664,176.1341 311.831133,176.436551 311.936255,176.772908 C312.592072,178.645656 312.022921,180.728845 310.505976,182.007968 C309.709163,182.641434 308.653386,183.175299 308.553785,184.171315 C308.584142,184.49625 308.543356,184.823898 308.434263,185.131474 C308.183267,185.569721 307.553785,185.52988 307.055777,185.446215 C306.63689,185.407647 306.235598,185.259224 305.89243,185.015936 C305.366534,184.569721 305.322709,183.772908 304.924303,183.211155 C304.43288,182.624471 303.69693,182.299181 302.932271,182.330677 C302.183267,182.306773 301.446215,182.474104 300.697211,182.50996 C298.969695,182.580756 297.283282,181.971416 296,180.812749 C295.266932,180.139442 294.665339,179.219124 294.721116,178.223108 C294.756972,177.61753 295.031873,177.051793 295.119522,176.450199 C295.414343,174.733068 294.2749,173.103586 293.035857,171.87251 C291.796813,170.641434 290.342629,169.505976 289.737052,167.868526 C288.98008,165.840637 289.713147,163.577689 289.50996,161.426295 C289.143426,157.549801 285.840637,154.585657 282.52988,152.968127 C281.792829,152.589641 280.537849,151.629482 281.394422,150.653386 Z" id="Path" fill="#444053"></path>
                <path d="M307.450199,184.111554 C306.924303,183.661355 306.880478,182.868526 306.482072,182.306773 C305.990689,181.719599 305.255136,181.393014 304.49004,181.422311 C303.741036,181.398406 303,181.565737 302.25498,181.601594 C300.521146,181.677703 298.827354,181.066334 297.541833,179.900398 C296.808765,179.231076 296.211155,178.306773 296.266932,177.314741 C296.302789,176.705179 296.577689,176.139442 296.665339,175.541833 C296.964143,173.820717 295.820717,172.191235 294.581673,170.960159 C293.342629,169.729084 291.89243,168.593625 291.282869,166.956175 C290.52988,164.932271 291.282869,162.669323 291.059761,160.513944 C290.689243,156.63745 287.386454,153.673307 284.079681,152.055777 C283.306773,151.677291 282.051793,150.717131 282.908367,149.741036 C283.123506,149.49004 283.454183,149.36255 283.677291,149.119522 C284.366534,148.374502 283.677291,147.14741 283.932271,146.163347 C283.981296,145.967393 284.066415,145.782293 284.183267,145.61753 C283.350598,145.772908 282.589641,146.243028 282.386454,147.039841 C282.143426,148.027888 282.824701,149.250996 282.135458,150 C281.912351,150.243028 281.581673,150.370518 281.36255,150.61753 C280.505976,151.593625 281.760956,152.557769 282.533865,152.932271 C285.844622,154.549801 289.14741,157.517928 289.513944,161.390438 C289.717131,163.545817 288.984064,165.808765 289.741036,167.836653 C290.346614,169.47012 291.800797,170.625498 293.039841,171.840637 C294.278884,173.055777 295.430279,174.697211 295.123506,176.418327 C294.955603,177.000857 294.822565,177.592876 294.7251,178.191235 C294.669323,179.183267 295.270916,180.10757 296.003984,180.776892 C297.287601,181.943348 298.980406,182.554877 300.713147,182.478088 C301.462151,182.442231 302.199203,182.278884 302.948207,182.298805 C303.713186,182.270116 304.448483,182.596588 304.940239,183.183267 C305.338645,183.74502 305.38247,184.541833 305.908367,184.988048 C306.251944,185.229919 306.653205,185.376956 307.071713,185.414343 C307.569721,185.505976 308.199203,185.537849 308.450199,185.103586 C308.539618,184.926311 308.578228,184.727746 308.561753,184.52988 C308.160903,184.490579 307.7775,184.346287 307.450199,184.111554 Z" id="Path" fill="#000000" opacity="0.1"></path>
                <path d="M249.454183,160.434263 L221.896414,160.434263 L221.896414,133.278884 L249.474104,133.278884 L249.454183,160.434263 Z M249.055777,119.49004 L222.294821,119.49004 C222.294821,77.2908367 262.406375,79.7569721 262.406375,53.059761 C262.406375,38.3545817 250.370518,26.5737052 235.665339,26.5737052 C220.960159,26.5737052 208.928287,39.2749004 208.928287,53.4780876 L182.187172,53.4780876 C182.162873,39.2873576 187.789326,25.6708279 197.823703,15.6364516 C207.858079,5.60207535 221.474609,-0.0243781988 235.665339,-7.88897934e-05 C265.203187,-7.88897934e-05 289.143426,23.5657371 289.143426,53.059761 C289.143426,86.4422311 249.035857,90.2430279 249.035857,119.49004 L249.055777,119.49004 Z" id="Shape" fill="#0080FF"></path>
                <path d="M112.007968,152.346614 L104.900398,152.346614 L104.900398,145.326693 L112.007968,145.326693 L112.007968,152.346614 Z M111.900398,141.788845 L105.007968,141.788845 C105.007968,130.912351 115.346614,131.545817 115.346614,124.657371 C115.339234,122.837139 114.608791,121.094453 113.316091,119.812961 C112.02339,118.531469 110.27441,117.81623 108.454183,117.824701 C104.671551,117.912067 101.634495,120.973757 101.577689,124.756972 L94.685259,124.756972 C94.7804163,117.231144 100.892837,111.171928 108.419209,111.142459 C115.945582,111.113204 122.105091,117.124546 122.258964,124.649402 C122.239044,133.25498 111.900398,134.23506 111.900398,141.772908 L111.900398,141.788845 Z" id="Shape" fill="#0080FF" opacity="0.1"></path>
                <path d="M165.824701,201.115538 L158.717131,201.115538 L158.717131,194.115538 L165.824701,194.115538 L165.824701,201.115538 Z M165.721116,190.561753 L158.828685,190.561753 C158.828685,179.681275 169.167331,180.318725 169.167331,173.430279 C169.159953,171.610411 168.429383,169.868131 167.136567,168.587272 C165.843751,167.306412 164.094759,166.592062 162.2749,166.601594 C158.475205,166.670045 155.415701,169.741893 155.36255,173.541833 L148.47012,173.541833 C148.565277,166.016004 154.677697,159.956788 162.20407,159.92732 C169.730442,159.898065 175.889952,165.909406 176.043835,173.434263 C176.055777,182.039841 165.721116,183.023904 165.721116,190.561753 Z" id="Shape" fill="#0080FF" opacity="0.1"></path>
                <path d="M198.549801,114.780876 L193.398406,114.780876 L193.398406,109.717131 L198.549801,109.717131 L198.549801,114.780876 Z M198.474104,107.12749 L193.478088,107.12749 C193.478088,99.247012 200.972112,99.7051793 200.972112,94.7171315 C200.965787,93.3984408 200.435866,92.1362743 199.498928,91.2083022 C198.56199,90.2803301 197.294786,89.7625692 195.976096,89.7689243 C193.227852,89.8244954 191.018173,92.0482713 190.98008,94.7968127 L185.983984,94.7968127 C185.96983,91.2270036 187.861148,87.9207703 190.945577,86.123539 C194.030005,84.3263077 197.838946,84.3111205 200.937609,86.0836984 C204.036271,87.8562762 205.953894,91.1473223 205.968127,94.7171315 C205.960159,100.952191 198.474104,101.665339 198.474104,107.12749 L198.474104,107.12749 Z" id="Shape" fill="#0080FF" opacity="0.1"></path>
                <path d="M286.533865,121.928287 L283.621514,121.928287 L283.621514,119.059761 L286.533865,119.059761 L286.533865,121.928287 Z M286.49004,117.605578 L283.649402,117.605578 C283.649402,113.151394 287.884462,113.410359 287.884462,110.589641 C287.884511,109.844438 287.586316,109.130212 287.056392,108.606276 C286.526469,108.08234 285.808899,107.79228 285.063745,107.800797 C283.510974,107.8328 282.262311,109.088507 282.239044,110.641434 L279.414343,110.641434 C279.482907,107.579928 281.978158,105.130446 285.040409,105.118521 C288.102659,105.106682 290.616844,107.536728 290.709208,110.59761 C290.7251,114.099602 286.49004,114.517928 286.49004,117.605578 L286.49004,117.605578 Z" id="Shape" fill="#0080FF" opacity="0.1"></path>
                <path d="M331.059761,252.394422 L328.14741,252.394422 L328.14741,249.525896 L331.059761,249.525896 L331.059761,252.394422 Z M331.015936,248.071713 L328.191235,248.071713 C328.191235,243.613546 332.430279,243.876494 332.430279,241.055777 C332.419313,239.506088 331.15528,238.258101 329.605578,238.266932 C328.051926,238.296878 326.802081,239.553774 326.780876,241.10757 L323.956175,241.10757 C324.024739,238.046064 326.519991,235.596581 329.582242,235.584656 C332.644492,235.572818 335.158677,238.002863 335.251041,241.063745 C335.266932,244.581673 331.031873,244.984064 331.031873,248.071713 L331.015936,248.071713 Z" id="Shape" fill="#0080FF" opacity="0.1"></path>
            </g>
        </g>
    </g>
</svg>