<?xml version="1.0" encoding="UTF-8"?>
<svg width="606px" height="316px" viewBox="0 0 606 316" version="1.1" xmlns="http://www.w3.org/2000/svg" xmlns:xlink="http://www.w3.org/1999/xlink">
    <!-- Generator: Sketch 56 (81588) - https://sketch.com -->
    <title>Group 2</title>
    <desc>Created with Sketch.</desc>
    <g id="Page-1" stroke="none" stroke-width="1" fill="none" fill-rule="evenodd">
        <g id="Artboard" transform="translate(-188.000000, -264.000000)">
            <g id="Group-2" transform="translate(171.000000, 264.000000)">
                <rect id="Rectangle" x="0" y="0" width="626" height="316"></rect>
                <g id="Group-40">
                    <g id="Group-38" transform="translate(0.000000, 3.000000)">
                        <g id="youtube" transform="translate(68.000000, 0.000000)" fill-rule="nonzero">
                            <path d="M35.8956582,18.3324958 L23.7685032,11.6970486 C23.0712034,11.315523 22.2470075,11.3297621 21.5635279,11.7347405 C20.8796296,12.1401377 20.4717196,12.8562835 20.4717196,13.6511635 L20.4717196,26.8081445 C20.4717196,27.5992553 20.8771168,28.3141447 21.5564084,28.7199607 C21.9111309,28.9318729 22.3043829,29.0382477 22.6984726,29.0382477 C23.059477,29.0382477 23.4213191,28.9490436 23.7542641,28.7697978 L35.8818379,22.2486827 C36.6017528,21.8612939 37.051124,21.1129005 37.0544888,20.2949866 C37.0574059,19.4770727 36.6134792,18.7253289 35.8956582,18.3324958 L35.8956582,18.3324958 Z M23.6885128,25.1530519 L23.6885128,15.3196577 L32.7521549,20.2790723 L23.6885128,25.1530519 Z" id="Shape" fill="#ED6845"></path>
                            <path d="M54.4890655,9.81287314 C54.5053987,9.99714458 54.8932063,14.3735913 54.8932063,18.7676276 L54.8932063,22.8752056 C54.8932063,27.2692419 54.5053987,31.6456887 54.4890655,31.8299601 L54.4827835,31.8860791 C54.4291773,32.3178606 53.9027473,36.1636894 52.0830669,38.1416758 C49.8990314,40.5447429 47.4356572,40.8056546 46.2521321,40.9312942 C46.1390564,40.9430206 46.0360319,40.9539093 45.944315,40.9660544 L45.8484101,40.9761056 C38.5914656,41.5037921 27.6323404,41.5758254 27.5226152,41.5762442 L27.5058632,41.576663 L27.4891113,41.5762442 C26.9321089,41.568287 13.7948115,41.3718705 9.60473019,40.9731741 L9.47783415,40.9555845 C9.34675018,40.9325505 9.15452153,40.9107731 8.93130183,40.8852263 C7.5191124,40.72357 4.89366317,40.4228725 2.8172591,38.1504706 C0.915493977,36.1507066 0.453140175,32.2927327 0.406653596,31.8580197 L0.403721979,31.8303789 C0.387388801,31.6461075 -4.19220214e-13,27.2692419 -4.19220214e-13,22.8752056 L-4.19220214e-13,18.7676276 C-4.19220214e-13,14.3735913 0.387388801,9.99672581 0.403721979,9.81287314 L0.410003986,9.75675405 C0.464028996,9.32455376 0.990040205,5.47872497 2.80972067,3.50115741 C5.02432837,1.0650052 7.50110413,0.778965643 8.69133008,0.641599659 C8.78472222,0.630710838 8.87057594,0.621078548 8.94847255,0.610608499 L9.04521509,0.600557329 C16.367492,0.0728710331 27.3270362,0.000837597466 27.4367614,0.000418798733 L27.4463938,3.19744231e-14 L27.4560262,0.000418798733 C27.5657514,0.000837597466 38.5252955,0.0728710331 45.7822399,0.600557329 L45.8781448,0.610608499 C45.9598106,0.62149732 46.0511087,0.631967261 46.1507828,0.643274854 C47.3548291,0.780222066 49.858408,1.06584275 52.0667337,3.41697889 C53.9772935,5.41590521 54.4400661,9.34591252 54.4865528,9.78774521 L54.4890655,9.81287314 Z M53.1666667,23.291852 L53.1666667,18.8990007 C53.1666667,14.4792763 52.7793709,9.93727941 52.7536398,9.64391502 C52.6085702,8.30339669 52.0376084,5.82749109 51.1148417,4.85692532 L51.1010889,4.84214516 C50.3787287,4.0642809 50.9282743,1.84909608 28.2203338,1.84909608 C4.48669218,1.84909608 4.68302503,4.04266902 3.91665658,4.8936519 C3.01651545,5.88168509 2.41760444,8.32623883 2.24502924,9.66048672 C2.20865099,10.0801546 1.83333333,14.5545209 1.83333333,18.8990007 L1.83333333,23.291852 C1.83333333,27.7021708 2.2192983,32.2343143 2.24636018,32.5451461 C2.39142978,33.8592393 2.96239158,36.2925958 3.88515827,37.2631616 L3.91665658,37.2972008 C4.60526905,38.0618794 3.91667034,39.3919908 28.4166667,39.3919908 C51.1148417,39.3919908 50.3790657,38.0794528 51.0833434,37.2972008 C52.0225247,36.2666186 52.6103448,33.6644095 52.7549708,32.5317096 C52.7904618,32.1205516 53.1666667,27.6412585 53.1666667,23.291852 Z" id="Combined-Shape" fill="#1B1B25"></path>
                        </g>
                        <g id="Group-30" transform="translate(0.000000, 67.000000)">
                            <text id="Topic-wise-videos-us" font-family="HelveticaNeue-Thin, Helvetica Neue" font-size="15" font-weight="300" letter-spacing="0.46875" fill="#494953">
                                <tspan x="18.324375" y="44">Topic wise videos using </tspan>
                                <tspan x="25.843125" y="62">latest VFX technology</tspan>
                            </text>
                            <text id="Concise-Videos" font-family="HelveticaNeue-Medium, Helvetica Neue" font-size="18" font-weight="400" fill="#1B1B25">
                                <tspan x="29.88" y="18">Concise Videos</tspan>
                            </text>
                        </g>
                        <g id="Group-30" transform="translate(0.000000, 168.000000)">
                            <text id="Expert-Faculty-with" font-family="HelveticaNeue-Thin, Helvetica Neue" font-size="15" font-weight="300" letter-spacing="0.46875" fill="#494953">
                                <tspan x="19.111875" y="124">Expert Faculty with 10+ </tspan>
                                <tspan x="32.266875" y="142">years of experience</tspan>
                            </text>
                            <text id="Expert-Faculty" font-family="HelveticaNeue-Medium, Helvetica Neue" font-size="18" font-weight="400" fill="#1B1B25">
                                <tspan x="35.479" y="97">Expert Faculty</tspan>
                            </text>
                            <g id="discussion" transform="translate(68.000000, 0.000000)" fill-rule="nonzero">
                                <path d="M16.8094254,38.1293106 L13.5355758,38.1293106 L13.5355758,38.2023239 C13.5355758,39.6084595 12.3954773,40.748558 10.9893417,40.748558 C9.58278653,40.748558 8.44310758,39.6084595 8.44310758,38.2023239 L8.44310758,38.1293106 L5.16925814,38.1293106 C2.75856023,38.1293106 0.803985596,40.0834656 0.803985596,42.4945832 L0.803985596,54.8392868 L21.1742782,54.8392868 L21.1742782,42.4945832 C21.1742782,40.0834656 19.2201233,38.1293106 16.8094254,38.1293106 L16.8094254,38.1293106 Z" id="Path"></path>
                                <path d="M49.8307419,38.1293106 L46.5568924,38.1293106 L46.5568924,38.2023239 C46.5568924,39.6084595 45.4172135,40.748558 44.0106583,40.748558 C42.6045227,40.748558 41.4644242,39.6084595 41.4644242,38.2023239 L41.4644242,38.1293106 L38.1905746,38.1293106 C35.7798767,38.1293106 33.8257218,40.0834656 33.8257218,42.4945832 L33.8257218,54.8392868 L54.1960144,54.8392868 L54.1960144,42.4945832 C54.1960144,40.0834656 52.2414398,38.1293106 49.8307419,38.1293106 L49.8307419,38.1293106 Z" id="Path"></path>
                                <path d="M13.5355758,34.200859 L13.5355758,38.2019043 C13.5355758,39.6084595 12.3958969,40.7481384 10.9893417,40.7481384 C9.58278653,40.7481384 8.44310758,39.6084595 8.44310758,38.2019043 L8.44310758,34.200859 L13.5355758,34.200859 Z" id="Path"></path>
                                <path d="M10.9893417,22.9240799 C8.17665105,22.9240799 5.89687345,25.204277 5.89687345,28.0169678 L5.89687345,31.0726165 L7.20565796,28.6518478 C7.58708951,27.9468918 8.32393644,27.507553 9.12540438,27.507553 L12.8528596,27.507553 C13.654747,27.507553 14.3915939,27.9468918 14.7726059,28.6518478 L16.08181,31.0726165 L16.08181,28.0169678 C16.08181,25.204277 13.8020325,22.9240799 10.9893417,22.9240799 L10.9893417,22.9240799 Z" id="Path" fill="#ED6845"></path>
                                <path d="M12.8528596,27.507553 L9.12540438,27.507553 C8.32393644,27.507553 7.58708951,27.9468918 7.20565796,28.6518478 L5.89687345,31.0726165 C5.89687345,33.8848877 8.17665105,36.1650848 10.9893417,36.1650848 C13.8016129,36.1650848 16.08181,33.8848877 16.08181,31.0726165 L14.7726059,28.6518478 C14.3915939,27.9468918 13.654747,27.507553 12.8528596,27.507553 L12.8528596,27.507553 Z" id="Path"></path>
                                <path d="M30.8502197,37.0420837 L30.8502197,42.3070145 C30.8502197,44.1575241 29.3505096,45.6576538 27.5,45.6576538 C25.6494904,45.6576538 24.1497803,44.1575241 24.1497803,42.3070145 L24.1497803,37.0420837 L30.8502197,37.0420837 Z" id="Path"></path>
                                <path d="M29.95224,28.2351685 L25.04776,28.2351685 C23.9932633,28.2351685 23.0231095,28.8129806 22.5216675,29.7407532 L20.799141,32.9256439 C20.799141,36.6266633 23.7994003,39.626503 27.5,39.626503 C31.2005997,39.626503 34.200859,36.6266633 34.200859,32.9256439 L32.4783325,29.7407532 C31.9764709,28.8134002 31.0067367,28.2351685 29.95224,28.2351685 L29.95224,28.2351685 Z" id="Path"></path>
                                <path d="M27.5,22.2044373 C23.7994003,22.2044373 20.799141,25.204277 20.799141,28.9052963 L20.799141,32.9256439 L22.5216675,29.7407532 C23.0235291,28.8134002 23.9932633,28.2351685 25.04776,28.2351685 L29.95224,28.2351685 C31.0067367,28.2351685 31.9768905,28.8129806 32.4783325,29.7407532 L34.200859,32.9256439 L34.200859,28.9052963 C34.200859,25.204277 31.2005997,22.2044373 27.5,22.2044373 L27.5,22.2044373 Z" id="Path" fill="#ED6845"></path>
                                <path d="M20.4370117,40.0662613 C20.901947,40.7598877 21.1742782,41.5961838 21.1742782,42.4945832 L21.1742782,54.8392868 L11.9540405,54.8392868 L11.9540405,47.9550553 C11.9540405,43.6053085 15.4922485,40.0662613 19.8419953,40.0662613 L20.4370117,40.0662613 Z" id="Path"></path>
                                <path d="M43.0459595,47.9550553 L43.0459595,54.8392868 L33.8257218,54.8392868 L33.8257218,42.4945832 C33.8257218,41.5961838 34.098053,40.7598877 34.5629883,40.0662613 L35.1580047,40.0662613 C39.5077515,40.0662613 43.0459595,43.6053085 43.0459595,47.9550553 L43.0459595,47.9550553 Z" id="Path"></path>
                                <path d="M35.1580047,42.2109222 L30.8502197,42.2109222 L30.8502197,42.3065949 C30.8502197,44.1571045 29.3505096,45.6572342 27.5,45.6572342 C25.6494904,45.6572342 24.1497803,44.1571045 24.1497803,42.3065949 L24.1497803,42.2109222 L19.8419953,42.2109222 C16.669693,42.2109222 14.0982819,44.782753 14.0982819,47.9546356 L14.0982819,54.8388672 L40.9017181,54.8388672 L40.9017181,47.9546356 C40.9017181,44.782753 38.3298874,42.2109222 35.1580047,42.2109222 L35.1580047,42.2109222 Z" id="Path"></path>
                                <path d="M45.8745956,27.507553 L42.1471404,27.507553 C41.345253,27.507553 40.6084061,27.9468918 40.2273941,28.6518478 L38.91819,31.0726165 C38.91819,33.8848877 41.1979675,36.1650848 44.0106583,36.1650848 C46.8233489,36.1650848 49.1031266,33.8848877 49.1031266,31.0726165 L47.794342,28.6518478 C47.4129105,27.9468918 46.6760636,27.507553 45.8745956,27.507553 L45.8745956,27.507553 Z" id="Path"></path>
                                <path d="M44.0106583,22.9240799 C41.1979675,22.9240799 38.91819,25.204277 38.91819,28.0169678 L38.91819,31.0726165 L40.2273941,28.6518478 C40.6084061,27.9468918 41.3456726,27.507553 42.1471404,27.507553 L45.8745956,27.507553 C46.6760636,27.507553 47.4129105,27.9468918 47.794342,28.6518478 L49.1031266,31.0726165 L49.1031266,28.0169678 C49.1031266,25.204277 46.8233489,22.9240799 44.0106583,22.9240799 L44.0106583,22.9240799 Z" id="Path" fill="#ED6845"></path>
                                <polygon id="Path" points="38.2212067 0.803985596 3.44179495 0.803985596 3.44179495 12.0614624 17.3364589 12.0614624 20.8318428 15.9210969 24.3272268 12.0614624 38.2212067 12.0614624"></polygon>
                                <polygon id="Path" fill="#000000" points="17.6020813 50.4433822 19.2100525 50.4433822 19.2100525 54.8392868 17.6020813 54.8392868"></polygon>
                                <polygon id="Path" fill="#000000" points="35.7899475 50.4433822 37.3979187 50.4433822 37.3979187 54.8392868 35.7899475 54.8392868"></polygon>
                                <path d="M49.8307419,37.325325 L47.3612976,37.325325 L47.3612976,35.9208679 C48.8979339,34.8554611 49.9075317,33.0800628 49.9075317,31.0726165 L49.9075317,28.0169678 C49.9075317,24.765358 47.2622681,22.1200943 44.0106583,22.1200943 C40.7594681,22.1200943 38.1142044,24.765358 38.1142044,28.0169678 L38.1142044,31.0726165 C38.1142044,33.0800628 39.1233826,34.8554611 40.6604386,35.9208679 L40.6604386,37.3249054 L38.190155,37.3249054 C35.7286834,37.3249054 33.6389924,39.0654754 33.1367111,41.4069367 L31.6546249,41.4069367 L31.6546249,39.1720581 C33.6725617,37.8255081 35.0048446,35.5285263 35.0048446,32.9256439 L35.0048446,28.9052963 C35.0048446,24.7670365 31.6382599,21.4004517 27.5,21.4004517 C23.3617401,21.4004517 19.9951554,24.7670365 19.9951554,28.9052963 L19.9951554,32.9256439 C19.9951554,35.5285263 21.3274383,37.8250886 23.3453751,39.1720581 L23.3453751,41.4069367 L21.8632889,41.4069367 C21.3610076,39.0654754 19.2713166,37.3249054 16.809845,37.3249054 L14.3395614,37.3249054 L14.3395614,35.9208679 C15.8766174,34.8554611 16.8857956,33.0800628 16.8857956,31.0726165 L16.8857956,28.0169678 C16.8857956,24.765358 14.2405319,22.1200943 10.9893417,22.1200943 C7.73773193,22.1200943 5.09246826,24.765358 5.09246826,28.0169678 L5.09246826,31.0726165 C5.09246826,33.0800628 6.10206609,34.8554611 7.63870239,35.9208679 L7.63870239,37.325325 L5.16925814,37.325325 C2.31880193,37.325325 0,39.6441269 0,42.4945832 L0,54.8392868 L1.60839078,54.8392868 L1.60839078,42.4945832 C1.60839078,40.530777 3.20545199,38.9332962 5.16925814,38.9332962 L7.72010809,38.9332962 C8.05496216,40.430069 9.39311979,41.5525436 10.9893417,41.5525436 C12.5855636,41.5525436 13.9237214,40.430069 14.2585754,38.9332962 L16.809845,38.9332962 C18.3850861,38.9332962 19.7387695,39.9676514 20.2003479,41.4069367 L19.8419953,41.4069367 C16.2316131,41.4069367 13.2942962,44.3442536 13.2942962,47.9546356 L13.2942962,54.8392868 L14.9026871,54.8392868 L14.9026871,47.9546356 C14.9026871,45.2309037 17.1182633,43.0153275 19.8419953,43.0153275 L23.4070588,43.0153275 C23.7444305,44.9694824 25.450592,46.4612198 27.5,46.4612198 C29.549408,46.4612198 31.2555695,44.9694824 31.5929412,43.0153275 L35.1580047,43.0153275 C37.8817367,43.0153275 40.0973129,45.2309037 40.0973129,47.9546356 L40.0973129,54.8392868 L41.7057038,54.8392868 L41.7057038,47.9546356 C41.7057038,44.3442536 38.7683869,41.4069367 35.1580047,41.4069367 L34.7996521,41.4069367 C35.2612305,39.9676514 36.6153336,38.9332962 38.190155,38.9332962 L40.7414246,38.9332962 C41.0762786,40.430069 42.4144364,41.5525436 44.0106583,41.5525436 C45.6068802,41.5525436 46.9450378,40.430069 47.2798919,38.9332962 L49.8307419,38.9332962 C51.794548,38.9332962 53.3916092,40.530777 53.3916092,42.4945832 L53.3916092,54.8392868 L55,54.8392868 L55,42.4945832 C55,39.6441269 52.6811981,37.325325 49.8307419,37.325325 Z M10.9893417,23.7284851 C13.3299637,23.7284851 15.2371216,25.6134033 15.2761459,27.9447937 C14.7193146,27.1710205 13.8221741,26.7035676 12.8528596,26.7035676 L9.12540438,26.7035676 C8.15650945,26.7035676 7.2593689,27.1714401 6.70253751,27.9447937 C6.74114225,25.6134033 8.64871981,23.7284851 10.9893417,23.7284851 L10.9893417,23.7284851 Z M12.7315902,38.2019043 C12.7315902,39.1628265 11.9498444,39.9441528 10.9893417,39.9441528 C10.0288391,39.9441528 9.24709317,39.1628265 9.24709317,38.2019043 L9.24709317,36.7063904 C9.79804998,36.8767547 10.3829956,36.9690705 10.9893417,36.9690705 C11.5956878,36.9690705 12.1806335,36.8767547 12.7315902,36.7063904 L12.7315902,38.2019043 Z M10.9893417,35.3610993 C8.6898422,35.3610993 6.80786133,33.5416413 6.70589444,31.2668991 L7.91313166,29.0345382 C8.1539917,28.5884857 8.61850741,28.3115388 9.12540438,28.3115388 L12.8528596,28.3115388 C13.3597565,28.3115388 13.8246917,28.5884857 14.0655518,29.0345382 L15.272789,31.2668991 C15.1708221,33.5416413 13.2888412,35.3610993 10.9893417,35.3610993 L10.9893417,35.3610993 Z M21.6031266,28.9052963 C21.6031266,25.6536865 24.2483902,23.0084229 27.5,23.0084229 C30.7516098,23.0084229 33.3968734,25.6536865 33.3968734,28.9052963 L33.3968734,29.7487259 L33.1853866,29.3584823 C32.5425338,28.1697083 31.3038254,27.4311829 29.95224,27.4311829 L25.04776,27.4311829 C23.6961746,27.4311829 22.4574662,28.1697083 21.8141937,29.3584823 L21.6031266,29.7487259 L21.6031266,28.9052963 Z M30.0462341,42.3065949 C30.0462341,43.7110519 28.9040374,44.8532486 27.5,44.8532486 C26.0959626,44.8532486 24.9537659,43.7110519 24.9537659,42.3065949 L24.9537659,39.9852752 C25.7493591,40.2731323 26.6066361,40.4304886 27.5,40.4304886 C28.3933639,40.4304886 29.2506409,40.2731323 30.0462341,39.9852752 L30.0462341,42.3065949 Z M27.5,38.8225174 C24.3138504,38.8225174 21.7113876,36.2817383 21.608162,33.120346 L23.2291413,30.1234436 C23.5904312,29.4545745 24.2874146,29.0391541 25.04776,29.0391541 L29.95224,29.0391541 C30.7125854,29.0391541 31.4095688,29.4549942 31.7708587,30.1234436 L33.391838,33.120346 C33.2886124,36.2817383 30.6861496,38.8225174 27.5,38.8225174 Z M44.0106583,23.7284851 C46.3512802,23.7284851 48.2588578,25.6134033 48.2974625,27.9447937 C47.7406311,27.1710205 46.8434905,26.7035676 45.8745956,26.7035676 L42.1471404,26.7035676 C41.1778259,26.7035676 40.2806854,27.1714401 39.7238541,27.9447937 C39.7628784,25.6134033 41.6700363,23.7284851 44.0106583,23.7284851 L44.0106583,23.7284851 Z M45.7529068,38.2019043 C45.7529068,39.1628265 44.9711609,39.9441528 44.0106583,39.9441528 C43.0501556,39.9441528 42.2684098,39.1628265 42.2684098,38.2019043 L42.2684098,36.7063904 C42.8193665,36.8767547 43.4043122,36.9690705 44.0106583,36.9690705 C44.6170044,36.9690705 45.20195,36.8767547 45.7529068,36.7063904 L45.7529068,38.2019043 Z M44.0106583,35.3610993 C41.7111588,35.3610993 39.8291779,33.5416413 39.727211,31.2668991 L40.9344482,29.0345382 C41.1757279,28.5884857 41.6402435,28.3115388 42.1471404,28.3115388 L45.8745956,28.3115388 C46.3814926,28.3115388 46.8460083,28.5884857 47.0868683,29.0345382 L48.2941056,31.2668991 C48.1921387,33.5416413 46.3101578,35.3610993 44.0106583,35.3610993 L44.0106583,35.3610993 Z" id="Shape" fill="#1B1B25"></path>
                                <polygon id="Path" fill="#000000" points="50.1181794 44.3857956 51.7261506 44.3857956 51.7261506 54.8392868 50.1181794 54.8392868"></polygon>
                                <polygon id="Path" fill="#000000" points="3.27384943 44.3857956 4.88182063 44.3857956 4.88182063 54.8392868 3.27384943 54.8392868"></polygon>
                            </g>
                        </g>
                    </g>
                    <g id="Group-34" transform="translate(215.000000, 0.000000)">
                        <g id="Group-31">
                            <g id="Group-30" transform="translate(216.000000, 2.000000)">
                                <g id="Group-37">
                                    <text id="Interactive-quiz-at" font-family="HelveticaNeue-Thin, Helvetica Neue" font-size="15" font-weight="300" letter-spacing="0.46875" fill="#494953">
                                        <tspan x="3.41625" y="112">Interactive quiz at the end of </tspan>
                                        <tspan x="60.96375" y="130">each video</tspan>
                                    </text>
                                    <text id="Interactive-Quiz" font-family="HelveticaNeue-Medium, Helvetica Neue" font-size="18" font-weight="400" fill="#1B1B25">
                                        <tspan x="32.637" y="86">Interactive Quiz</tspan>
                                    </text>
                                    <g id="Group-30" transform="translate(0.000000, 248.000000)">
                                        <text id="Unique-credit-based" font-family="HelveticaNeue-Thin, Helvetica Neue" font-size="15" font-weight="300" letter-spacing="0.46875" fill="#494953">
                                            <tspan x="5.439375" y="45">Unique credit based pricing </tspan>
                                            <tspan x="68.248125" y="63">structure</tspan>
                                        </text>
                                        <text id="Unmatched-Pricing" font-family="HelveticaNeue-Medium, Helvetica Neue" font-size="18" font-weight="400" fill="#1B1B25">
                                            <tspan x="18.314" y="18">Unmatched Pricing</tspan>
                                        </text>
                                    </g>
                                    <g id="quiz" transform="translate(75.000000, 0.000000)" fill-rule="nonzero">
                                        <g id="Group" transform="translate(13.807120, 11.902319)">
                                            <polygon id="Path" fill="#ED6845" points="0.129441746 0.394646749 4.94595315 0.394646749 4.94595315 5.21115815 0.129441746 5.21115815"></polygon>
                                            <polygon id="Path" fill="#ED6845" points="0.129441746 7.77282629 4.94595315 7.77282629 4.94595315 12.5893377 0.129441746 12.5893377"></polygon>
                                            <polygon id="Path" fill="#1B1B25" points="0.129441746 15.1510058 4.94595315 15.1510058 4.94595315 19.9675172 0.129441746 19.9675172"></polygon>
                                        </g>
                                        <path d="M32.2393846,0 L9.83757273,0 L9.83757273,35.2513023 L0,35.2513023 L0,40.0678137 L4.8165114,40.0678137 L4.8165114,36.7886228 L24.2243836,36.7886228 L25.0957183,37.659558 L24.2243836,38.5304932 L6.50724434,38.5304932 L6.50724434,40.0678137 L9.83757273,40.0678137 L9.83757273,44.1668023 L29.4615807,44.1668023 L29.4615807,42.6294818 L11.3748932,42.6294818 L11.3748932,40.0678137 L24.861205,40.0678137 L27.2690612,37.659558 L24.861205,35.2513023 L11.3748932,35.2513023 L11.3748932,1.53732049 L31.1523136,1.53732049 L31.1523136,10.5550955 L40.8876114,10.5550955 L40.8876114,8.64822683 L32.2393846,0 Z M3.27919091,38.5304932 L1.53732049,38.5304932 L1.53732049,36.7886228 L3.27919091,36.7886228 L3.27919091,38.5304932 Z M32.6896341,9.017775 L32.6896341,2.62399195 L39.0834172,9.017775 L32.6896341,9.017775 Z" id="Shape" fill="#1B1B25"></path>
                                        <polygon id="Path" fill="#000000" points="39.3502909 12.2458284 40.8876114 12.2458284 40.8876114 35.2001648 39.3502909 35.2001648"></polygon>
                                        <polygon id="Path" fill="#1B1B25" points="20.4438057 14.032815 36.8397602 14.032815 36.8397602 15.5701355 20.4438057 15.5701355"></polygon>
                                        <polygon id="Path" fill="#1B1B25" points="20.4438057 7.33005274 29.4615807 7.33005274 29.4615807 8.86737324 20.4438057 8.86737324"></polygon>
                                        <polygon id="Path" fill="#1B1B25" points="13.8854239 7.33005274 18.8042102 7.33005274 18.8042102 8.86737324 13.8854239 8.86737324"></polygon>
                                        <polygon id="Path" fill="#1B1B25" points="20.4438057 21.4109945 36.8397602 21.4109945 36.8397602 22.948315 20.4438057 22.948315"></polygon>
                                        <polygon id="Path" fill="#1B1B25" points="20.4438057 28.7891741 36.8397602 28.7891741 36.8397602 30.3264946 20.4438057 30.3264946"></polygon>
                                        <path d="M40.1189512,49.0855887 C36.9827853,49.0855887 34.4315045,46.5343079 34.4315045,43.3981421 C34.4315045,40.2619762 36.9827853,37.7106955 40.1189512,37.7106955 C43.255117,37.7106955 45.8063978,40.2619762 45.8063978,43.3981421 C45.8063978,46.5343079 43.255117,49.0855887 40.1189512,49.0855887 Z M40.1189512,39.2480159 C37.8305489,39.2480159 35.968825,41.1097398 35.968825,43.3981421 C35.968825,45.6865443 37.8305489,47.5482682 40.1189512,47.5482682 C42.4073534,47.5482682 44.2690773,45.6865443 44.2690773,43.3981421 C44.2690773,41.1097398 42.4073534,39.2480159 40.1189512,39.2480159 Z" id="Shape" fill="#ED6845"></path>
                                        <polygon id="Path" fill="#1B1B25" points="39.0230909 45.5814727 37.93602 44.4944018 39.3502909 43.0797314 39.3502909 40.9387489 40.8876114 40.9387489 40.8876114 43.7165528"></polygon>
                                    </g>
                                </g>
                            </g>
                            <g id="Group-39">
                                <g id="Group-30" transform="translate(0.000000, 70.000000)">
                                    <text id="Study-material-cover" font-family="HelveticaNeue-Thin, Helvetica Neue" font-size="15" font-weight="300" letter-spacing="0.46875" fill="#494953">
                                        <tspan x="1.78125" y="44">Study material covering all of </tspan>
                                        <tspan x="9.601875" y="62">CS, CA and CMA syllabus</tspan>
                                    </text>
                                    <text id="Access-to-all-Papers" font-family="HelveticaNeue-Medium, Helvetica Neue" font-size="18" font-weight="400" fill="#1B1B25">
                                        <tspan x="13.112" y="18">Access to all Papers</tspan>
                                    </text>
                                </g>
                                <g id="Group-44" transform="translate(1.000000, 250.000000)">
                                    <g id="Group-30">
                                        <text id="Topic-wise-videos-us" font-family="HelveticaNeue-Thin, Helvetica Neue" font-size="15" font-weight="300" letter-spacing="0.46875" fill="#494953">
                                            <tspan x="18.324375" y="45">Topic wise videos using </tspan>
                                            <tspan x="25.843125" y="63">latest VFX technology</tspan>
                                        </text>
                                        <text id="No-cost-EMI-Availabl" font-family="HelveticaNeue-Medium, Helvetica Neue" font-size="18" font-weight="400" fill="#1B1B25">
                                            <tspan x="3.947" y="18">No cost EMI Available</tspan>
                                        </text>
                                    </g>
                                </g>
                                <g id="open-book" transform="translate(72.000000, 0.000000)" fill-rule="nonzero">
                                    <path d="M25.5313158,21.2992105 C25.6637719,21.5582456 25.9272807,21.7078947 26.1997368,21.7078947 C26.3135088,21.7078947 26.4302632,21.6816667 26.5388596,21.6263158 C26.5829825,21.6038596 30.9889474,19.3657018 33.1619298,18.6792982 C33.5557018,18.5542982 33.7742105,18.1335965 33.6492105,17.7399123 C33.5249123,17.3461404 33.1072807,17.1268421 32.7098246,17.2511404 C30.4207895,17.975 26.0448246,20.1981579 25.8592105,20.2924561 C25.4908772,20.4795614 25.3442105,20.9302632 25.5313158,21.2992105 Z" id="Path" fill="#ED6845"></path>
                                    <path d="M26.1997368,12.7255263 C26.3135088,12.7255263 26.4302632,12.6992982 26.5388596,12.6439474 C26.5829825,12.6214912 30.9889474,10.3833333 33.1619298,9.69692982 C33.5557018,9.57192982 33.7742105,9.15122807 33.6492105,8.75754386 C33.5249123,8.36377193 33.1072807,8.14447368 32.7098246,8.26877193 C30.4207895,8.99263158 26.0448246,11.2157895 25.8592105,11.3100877 C25.4909649,11.497193 25.3442105,11.947807 25.5313158,12.3168421 C25.6637719,12.5757895 25.9272807,12.7255263 26.1997368,12.7255263 Z" id="Path" fill="#ED6845"></path>
                                    <path d="M44.1639474,11.2284211 C43.75,11.2284211 43.4154386,11.5637719 43.4154386,11.9769298 L43.4154386,41.1699123 C43.4154386,42.4079825 42.4078947,43.4155263 41.1698246,43.4155263 L23.2049123,43.4155263 L23.2049123,41.6931579 C24.2963158,41.3114035 27.1392105,40.4214035 29.9417544,40.4214035 C36.4622807,40.4214035 40.8899123,41.8653509 40.9340351,41.8802632 C41.1592982,41.9550877 41.4108772,41.9177193 41.6077193,41.7769298 C41.8030702,41.6362281 41.9183333,41.4101754 41.9183333,41.1698246 L41.9183333,8.23429825 C41.9183333,7.88324561 41.6750877,7.57929825 41.332193,7.50368421 C41.332193,7.50368421 40.7453509,7.3727193 39.7422807,7.18850877 C39.3372807,7.11368421 38.9458772,7.38315789 38.8709649,7.78885965 C38.7961404,8.19605263 39.0648246,8.58605263 39.4713158,8.66087719 C39.8538596,8.73122807 40.1742105,8.79333333 40.4212281,8.84280702 L40.4212281,40.1750877 C38.725,39.7304386 34.9584211,38.9242982 29.9416667,38.9242982 C26.6802632,38.9242982 23.4765789,39.9954386 22.4854386,40.3585088 C21.604386,39.9692982 18.9411404,38.9242982 15.719386,38.9242982 C10.5634211,38.9242982 6.31622807,39.7746491 4.49131579,40.2065789 L4.49131579,8.81359649 C5.98614035,8.44605263 10.4010526,7.48570175 15.719386,7.48570175 C18.4485965,7.48570175 20.7892105,8.33526316 21.7077193,8.71929825 L21.7077193,38.1757895 C21.7077193,38.4452632 21.8528947,38.6945614 22.087193,38.8270175 C22.3214912,38.9602632 22.6104386,38.9564912 22.8417544,38.8172807 C22.9158772,38.7731579 30.3323684,34.3432456 36.915,32.1492982 C37.2211404,32.0467544 37.4270175,31.7615789 37.4270175,31.4389474 L37.4270175,0.748859649 C37.4270175,0.503333333 37.3064912,0.273508772 37.104386,0.133596491 C36.9037719,-0.00640350877 36.6463158,-0.0385964912 36.415,0.0475438596 C30.4259649,2.29385965 24.3658772,6.065 24.3051754,6.10245614 C23.9548246,6.32175439 23.847807,6.78359649 24.0671053,7.13394737 C24.2857018,7.48429825 24.7475439,7.59131579 25.0985965,7.37201754 C25.1539474,7.33684211 30.4259649,4.05675439 35.9299123,1.84333333 L35.9299123,30.9030702 C30.8203509,32.6785965 25.4855263,35.5777193 23.2047368,36.875614 L23.2047368,8.23429825 C23.2047368,7.95061404 23.0445614,7.69157895 22.7907895,7.56438596 C22.6620175,7.50078947 19.5945614,5.98868421 15.719386,5.98868421 C8.95561404,5.98868421 3.75552632,7.45210526 3.53692982,7.51491228 C3.21578947,7.60622807 2.99421053,7.9004386 2.99421053,8.23429825 L2.99421053,41.17 C2.99421053,41.4042982 3.105,41.6258772 3.29140351,41.7673684 C3.42315789,41.8669298 3.58184211,41.9185965 3.74280702,41.9185965 C3.81166667,41.9185965 3.88052632,41.9088596 3.94789474,41.889386 C3.9995614,41.8751754 9.17570175,40.4214912 15.719386,40.4214912 C18.4560526,40.4214912 20.7944737,41.2733333 21.7077193,41.6557895 L21.7077193,43.415614 L3.74280702,43.415614 C2.50473684,43.415614 1.49719298,42.4080702 1.49719298,41.17 L1.49719298,11.9770175 C1.49719298,11.5638596 1.16184211,11.2285088 0.748684211,11.2285088 C0.335526316,11.2285088 0.000175438596,11.5638596 0.000175438596,11.9770175 L0.000175438596,41.17 C0.000175438596,43.2336842 1.67912281,44.9127193 3.74289474,44.9127193 L41.1698246,44.9127193 C43.2335088,44.9127193 44.9125439,43.2337719 44.9125439,41.17 L44.9125439,11.9770175 C44.9125439,11.5637719 44.5778947,11.2284211 44.1639474,11.2284211 Z" id="Path" fill="#000000"></path>
                                    <path d="M25.5313158,16.8079825 C25.6637719,17.0670175 25.9272807,17.2166667 26.1997368,17.2166667 C26.3135088,17.2166667 26.4302632,17.1904386 26.5388596,17.1350877 C26.5829825,17.1126316 30.9889474,14.8744737 33.1619298,14.1880702 C33.5557018,14.0630702 33.7742105,13.6423684 33.6492105,13.2486842 C33.5249123,12.8549123 33.1072807,12.635614 32.7098246,12.7599123 C30.4207895,13.4837719 26.0448246,15.7069298 25.8592105,15.8012281 C25.4908772,15.9883333 25.3442105,16.4390351 25.5313158,16.8079825 Z" id="Path" fill="#ED6845"></path>
                                    <path d="M25.5313158,25.7904386 C25.6637719,26.0494737 25.9272807,26.1991228 26.1997368,26.1991228 C26.3135088,26.1991228 26.4302632,26.1728947 26.5388596,26.1175439 C26.5829825,26.0950877 30.9889474,23.8569298 33.1619298,23.1705263 C33.5557018,23.0455263 33.7742105,22.6248246 33.6492105,22.2311404 C33.5249123,21.8373684 33.1072807,21.6180702 32.7098246,21.7423684 C30.4207895,22.4662281 26.0448246,24.689386 25.8592105,24.7836842 C25.4908772,24.9707895 25.3442105,25.4214912 25.5313158,25.7904386 Z" id="Path" fill="#ED6845"></path>
                                    <path d="M18.1357895,13.8917544 C13.5135965,12.8071053 8.26105263,14.1889474 8.04026316,14.2480702 C7.64131579,14.3550877 7.40403509,14.7652632 7.51105263,15.165 C7.60087719,15.4995614 7.90324561,15.7196491 8.23342105,15.7196491 C8.29780702,15.7196491 8.36289474,15.7114035 8.42807018,15.6942105 C8.47824561,15.68 13.5353509,14.3498246 17.7945614,15.3491228 C18.195,15.4427193 18.6,15.1934211 18.6942982,14.7907018 C18.7885088,14.3887719 18.5385088,13.9860526 18.1357895,13.8917544 Z" id="Path" fill="#ED6845"></path>
                                    <path d="M18.1357895,18.3829825 C13.5135965,17.2991228 8.26105263,18.6801754 8.04026316,18.7392982 C7.64131579,18.8463158 7.40403509,19.2565789 7.51105263,19.6562281 C7.60087719,19.9907895 7.90324561,20.2108772 8.23342105,20.2108772 C8.29780702,20.2108772 8.36289474,20.2026316 8.42807018,20.1854386 C8.47824561,20.1712281 13.5353509,18.8410526 17.7945614,19.8403509 C18.195,19.9339474 18.6,19.6846491 18.6942982,19.2819298 C18.7885088,18.88 18.5385088,18.4772807 18.1357895,18.3829825 Z" id="Path" fill="#ED6845"></path>
                                    <path d="M25.5313158,30.2816667 C25.6637719,30.5407018 25.9272807,30.6903509 26.1997368,30.6903509 C26.3135088,30.6903509 26.4302632,30.6641228 26.5388596,30.6087719 C26.5829825,30.5863158 30.9889474,28.3481579 33.1619298,27.6617544 C33.5557018,27.5367544 33.7742105,27.1160526 33.6492105,26.7223684 C33.5249123,26.3286842 33.1072807,26.1092982 32.7098246,26.2335965 C30.4207895,26.9574561 26.0448246,29.180614 25.8592105,29.2749123 C25.4908772,29.4620175 25.3442105,29.9127193 25.5313158,30.2816667 Z" id="Path" fill="#ED6845"></path>
                                    <path d="M18.1357895,22.8742105 C13.5135965,21.7903509 8.26105263,23.170614 8.04026316,23.2305263 C7.64131579,23.3375439 7.40403509,23.747807 7.51105263,24.1474561 C7.60087719,24.4820175 7.90324561,24.7028947 8.23342105,24.7028947 C8.29780702,24.7028947 8.36289474,24.6939474 8.42807018,24.6766667 C8.47824561,24.6624561 13.5353509,23.3322807 17.7945614,24.3315789 C18.195,24.4251754 18.6,24.1758772 18.6942982,23.7731579 C18.7885088,23.3712281 18.5385088,22.9685088 18.1357895,22.8742105 Z" id="Path" fill="#ED6845"></path>
                                    <path d="M18.1357895,31.8566667 C13.5135965,30.7720175 8.26105263,32.1538596 8.04026316,32.2129825 C7.64131579,32.32 7.40403509,32.7302632 7.51105263,33.1299123 C7.60087719,33.4644737 7.90324561,33.6853509 8.23342105,33.6853509 C8.29780702,33.6853509 8.36289474,33.6764035 8.42807018,33.6591228 C8.47824561,33.6449123 13.5353509,32.3147368 17.7945614,33.3140351 C18.195,33.4068421 18.6,33.1583333 18.6942982,32.755614 C18.7885088,32.3536842 18.5385088,31.9509649 18.1357895,31.8566667 Z" id="Path" fill="#ED6845"></path>
                                    <path d="M18.1357895,27.3654386 C13.5135965,26.2807895 8.26105263,27.6618421 8.04026316,27.7217544 C7.64131579,27.8287719 7.40403509,28.2390351 7.51105263,28.6386842 C7.60087719,28.9732456 7.90324561,29.1941228 8.23342105,29.1941228 C8.29780702,29.1941228 8.36289474,29.1851754 8.42807018,29.1678947 C8.47824561,29.1536842 13.5353509,27.8235088 17.7945614,28.822807 C18.195,28.9164035 18.6,28.6671053 18.6942982,28.264386 C18.7885088,27.8624561 18.5385088,27.4597368 18.1357895,27.3654386 Z" id="Path" fill="#ED6845"></path>
                                </g>
                            </g>
                        </g>
                    </g>
                </g>
            </g>
        </g>
    </g>
</svg>