<?xml version="1.0" encoding="UTF-8"?>
<svg width="36px" height="40px" viewBox="0 0 36 40" version="1.1" xmlns="http://www.w3.org/2000/svg" xmlns:xlink="http://www.w3.org/1999/xlink">
    <!-- Generator: Sketch 61.2 (89653) - https://sketch.com -->
    <title>Group</title>
    <desc>Created with Sketch.</desc>
    <g id="Page-1" stroke="none" stroke-width="1" fill="none" fill-rule="evenodd">
        <g id="Artboard" transform="translate(-233.000000, -89.000000)">
            <g id="Group" transform="translate(231.000000, 89.000000)">
                <rect id="Rectangle" fill-opacity="0" fill="#FFFFFF" x="0" y="0" width="40" height="40"></rect>
                <g id="Group-4" transform="translate(2.000000, 0.000000)">
                    <path d="M26.5808847,4.59220779 C25.4264836,3.92034632 24.2720824,3.23232323 23.1176813,2.53506494 C22.3072917,2.04559885 21.5015197,1.54689755 20.6749684,1.08051948 C19.8484172,0.614141414 18.7355745,-2.02109934e-14 17.7497159,-2.02109934e-14 C16.7638573,-2.02109934e-14 15.6717938,0.60952381 14.8267722,1.08051948 C13.9817505,1.55151515 13.1921402,2.04559885 12.3840593,2.53506494 C11.2296582,3.22770563 10.075257,3.92034632 8.92085588,4.59220779 C7.76645473,5.26406926 6.58434795,5.91746032 5.40685877,6.56623377 C4.57568994,7.02799423 3.7399035,7.47359307 2.92489629,7.95151515 C2.10988907,8.42943723 1.01782558,9.09206349 0.52605069,9.94401154 C0.0342757978,10.7959596 0.0111877747,12.0588745 0.00195256548,13.0170274 C-0.00728264375,13.9751804 0.0181141816,14.9125541 0.0388934024,15.8591631 C0.0665990301,17.202886 0.0873782509,18.5466089 0.0873782509,19.8903319 C0.0873782509,21.2340548 0.0665990301,22.5777778 0.0388934024,23.9215007 C0.0181141816,24.8681097 -0.00728264375,25.8170274 0.00195256548,26.7636364 C0.0111877747,27.7102453 0.0342757978,28.9847042 0.52605069,29.8366522 C1.01782558,30.6886003 2.10065386,31.3419913 2.92489629,31.8291486 C3.74913871,32.3163059 4.57568994,32.7526696 5.40685877,33.21443 C6.58434795,33.8632035 7.75721952,34.5142857 8.92085588,35.188456 C10.0844922,35.8626263 11.2296582,36.5483405 12.3840593,37.2455988 C13.1921402,37.7350649 14.000221,38.2337662 14.8267722,38.7001443 C15.6533234,39.1665224 16.7661661,39.7806638 17.7497159,39.7806638 C18.7332657,39.7806638 19.8414908,39.17114 20.6749684,38.7001443 C21.5084461,38.2291486 22.3072917,37.7350649 23.1176813,37.2455988 C24.2720824,36.5529582 25.4264836,35.8603175 26.5808847,35.188456 C27.7352859,34.5165945 28.9197015,33.8632035 30.0971907,33.21443 C30.9260507,32.7526696 31.7618371,32.3070707 32.5768443,31.8291486 C33.3918516,31.3512266 34.483915,30.6886003 34.9756899,29.8366522 C35.4674648,28.9847042 35.4928617,27.7217893 35.5020969,26.7636364 C35.5113321,25.8054834 35.4836264,24.8681097 35.4628472,23.9215007 C35.4351416,22.5777778 35.4143624,21.2340548 35.4143624,19.8903319 C35.4143624,18.5466089 35.4351416,17.202886 35.4628472,15.8591631 C35.4836264,14.9125541 35.5113321,13.9636364 35.5020969,13.0170274 C35.4928617,12.0704185 35.4674648,10.7959596 34.9756899,9.94401154 C34.483915,9.09206349 33.4010868,8.43867244 32.5768443,7.95151515 C31.7526019,7.46435786 30.9260507,7.02799423 30.0971907,6.56623377 C28.9197015,5.91746032 27.7445211,5.26637807 26.5808847,4.59220779 Z" id="Path" fill="#0080FF"></path>
                    <path d="M21.3722267,26.6135642 C21.3121979,26.6782107 21.2498602,26.7428571 21.1875226,26.8051948 C20.6221216,27.3597988 19.9453163,27.7879175 19.2019526,28.0611833 C18.4286517,28.3506884 17.5999913,28.4619656 16.7777101,28.3867244 C16.0461466,28.3286455 15.3264187,28.167756 14.6397592,27.9088023 C14.0278372,27.6734042 13.4317032,27.3988586 12.855055,27.0868687 C12.3635118,27.5410757 11.8147656,27.9291565 11.2227318,28.2412698 C10.6086549,28.5576577 9.94206959,28.759511 9.25563222,28.8369408 C8.61670907,28.9304218 7.96472555,28.8710786 7.35317912,28.6637807 C6.85463832,28.4933193 6.40417195,28.2059392 6.0394706,27.8256854 C5.71758535,27.4749405 5.48616623,27.0509363 5.36530033,26.5904762 C5.2429104,26.1556339 5.2429104,25.6954483 5.36530033,25.2606061 C5.49651097,24.8207894 5.75915834,24.4316524 6.11796988,24.1454545 C6.56292179,23.7985313 7.09503124,23.5812134 7.65563222,23.5174603 C8.36542849,23.3985033 9.09261534,23.4355324 9.78665675,23.625974 C10.4485128,23.8133547 11.0897627,24.06707 11.7006539,24.3832612 C12.0843316,23.7084028 12.4177038,23.0061605 12.6980565,22.2822511 C13.0058968,21.5018759 13.3091195,20.6722463 13.6077246,19.7933622 C10.8371618,19.5486291 9.55808532,18.3111111 8.70382847,16.8588745 L10.0891099,15.8961039 C10.2992109,15.7506494 11.4513032,18.1148629 14.198778,17.9093795 C14.6005096,16.6949495 15.0153244,15.5005291 15.4432224,14.3261183 C15.8346652,13.2293556 16.3253974,12.1706106 16.9093119,11.1630592 C17.3981302,10.3023935 18.0342387,9.53421829 18.788677,8.89350649 C19.4802936,8.32032217 20.3540238,8.01324735 21.252169,8.02770563 C21.7759546,8.013742 22.2922643,8.15426173 22.7367289,8.43174603 C23.1452282,8.69067364 23.4856764,9.04378963 23.7295139,9.46147186 C23.9776349,9.89575473 24.139156,10.3740455 24.2051272,10.8698413 C24.2791421,11.3734738 24.2635093,11.8862273 24.1589511,12.3844156 C23.9895728,13.2230909 23.6662713,14.023125 23.2054158,14.7440115 C22.7282601,15.5040797 22.1504331,16.1960742 21.4876669,16.8011544 C20.8035204,17.4297812 20.0498147,17.9782126 19.2412022,18.4357864 C15.83341,20.379798 17.1332657,18.8421356 15.5471185,22.7786436 C15.1390442,23.7970018 14.6252147,24.7697182 14.0140738,25.6808081 C14.4334262,25.9064093 14.8650778,26.1083606 15.3070031,26.2857143 C15.7360481,26.4575729 16.1852784,26.5739538 16.6437996,26.6320346 C17.1204934,26.6892973 17.6033711,26.6674547 18.0729482,26.5673882 C18.6223581,26.4426474 19.1458232,26.2231046 19.6198458,25.9186147 C19.9950008,25.6781394 20.3069605,25.351136 20.5295139,24.9650794 C20.7578958,24.5906044 20.9298258,24.1845073 21.0397592,23.7598846 C21.824752,19.9341991 23.203107,16.9350649 25.6804518,16.175469 C28.4948819,15.3142857 28.8596726,19.2923521 28.1508703,20.3613276 L26.857941,19.830303 C26.9687635,16.9027417 25.2094562,18.3619048 24.2489944,20.2643579 C23.5512933,21.6225476 23.1387976,23.1091035 23.0368732,24.6326118 C23.06227,27.5670996 26.2691964,26.6551227 27.1280709,24.6949495 L28.4302354,25.8008658 C28.6611156,26.0017316 26.0983451,29.8851371 22.7759785,28.3982684 C22.2992449,28.1123573 21.9084233,27.703191 21.6446654,27.2138528 C21.5409213,27.0195496 21.4491672,26.8190785 21.3699179,26.6135642 L21.3722267,26.6135642 Z M21.3329771,10.1772006 C20.8391816,10.142014 20.3552922,10.3281253 20.0123422,10.6851371 C19.5884768,11.1291208 19.2433733,11.6420914 18.9918516,12.2020202 C18.6499639,12.92917 18.3651231,13.6817983 18.1399035,14.4531025 C17.8813176,15.3119769 17.6173446,16.2247234 17.3479843,17.191342 C17.9299372,16.937902 18.4826679,16.6220559 18.9964692,16.2493506 C19.4948244,15.8934436 19.9586246,15.4914835 20.3817505,15.0487734 C20.775764,14.6369416 21.1276775,14.1868017 21.4322556,13.7050505 C21.7087245,13.2719998 21.9312485,12.8067928 22.0948819,12.3197691 C22.1522881,12.1329712 22.192475,11.9413106 22.2149396,11.7471861 C22.2459474,11.5170392 22.2420556,11.2835312 22.2033956,11.0545455 C22.1697699,10.8362391 22.0789603,10.6307225 21.9401921,10.4588745 C21.7898625,10.2858472 21.5714173,10.1871674 21.3422123,10.1887446 L21.3329771,10.1772006 Z M8.86544463,26.5466089 C9.48478033,26.5419277 10.0791207,26.3017151 10.5277823,25.8747475 C10.2184028,25.7593074 9.91364088,25.6623377 9.60426137,25.5815296 C9.30264683,25.5033436 8.99232409,25.4637775 8.68074044,25.4637807 C8.36979844,25.4404814 8.05825042,25.5002412 7.77799874,25.6369408 C7.59560336,25.752381 7.51479528,25.8678211 7.54711851,26.0040404 C7.57944174,26.1402597 7.69026425,26.2580087 7.91190928,26.3734488 C8.2122372,26.5036355 8.53851886,26.5628876 8.86544463,26.5466089 Z" id="Shape" fill="#FFFFFF"></path>
                </g>
            </g>
        </g>
    </g>
</svg>