<?xml version="1.0" encoding="UTF-8"?>
<svg width="474px" height="376px" viewBox="0 0 474 376" version="1.1" xmlns="http://www.w3.org/2000/svg" xmlns:xlink="http://www.w3.org/1999/xlink">
    <!-- Generator: Sketch 61.2 (89653) - https://sketch.com -->
    <title>Group 46</title>
    <desc>Created with Sketch.</desc>
    <g id="New-Updated" stroke="none" stroke-width="1" fill="none" fill-rule="evenodd">
        <g id="sign-in-forgot-Password-1" transform="translate(-133.000000, -337.000000)">
            <g id="Group-55" transform="translate(133.000000, 40.000000)">
                <g id="Group-54">
                    <g id="Group-46" transform="translate(0.000000, 297.000000)">
                        <ellipse id="Oval" fill-opacity="0.15" fill="#0080FF" fill-rule="nonzero" opacity="0.3" cx="237" cy="353.5" rx="237" ry="22.5"></ellipse>
                        <g id="undraw_Login_v483" transform="translate(63.000000, 0.000000)">
                            <rect id="Rectangle" fill="#535461" fill-rule="nonzero" x="0" y="8.06399811" width="209.829868" height="310.491493"></rect>
                            <polygon id="Path" fill="#076FD7" fill-rule="nonzero" points="152.646503 326.589319 0 318.555293 0 8.06379962 152.646503 0.0297731569"></polygon>
                            <circle id="Oval" fill="#535461" fill-rule="nonzero" cx="139.886578" cy="178.196323" r="1.89035917"></circle>
                            <polygon id="Path" fill="#535461" fill-rule="nonzero" points="139.886578 178.478261 141.19707 180.74811 142.507089 183.017486 139.886578 183.017486 137.266068 183.017486 138.576087 180.74811"></polygon>
                            <polygon id="Path" fill="#0080FF" fill-rule="nonzero" points="159.26276 326.589319 149.913516 326.559546 150.283554 0.0297731569 159.26276 0.0297731569"></polygon>
                            <g id="Group" opacity="0.1" transform="translate(149.810964, 0.000000)" fill="#FFFFFF" fill-rule="nonzero">
                                <polygon id="Path" points="9.55434783 326.559546 0.102551985 326.559546 0.575141777 0 9.55434783 0"></polygon>
                            </g>
                            <circle id="Oval" fill="#000000" fill-rule="nonzero" opacity="0.1" cx="139.886578" cy="164.491219" r="6.1436673"></circle>
                            <circle id="Oval" fill="#535461" fill-rule="nonzero" cx="139.886578" cy="163.54604" r="6.1436673"></circle>
                            <line x1="24.9619234" y1="7.61247164" x2="24.9619234" y2="320.017089" id="Path" stroke="#000000" stroke-width="0.945179584" opacity="0.1"></line>
                            <line x1="51.8995416" y1="5.72211248" x2="51.8995416" y2="320.962268" id="Path" stroke="#000000" stroke-width="0.945179584" opacity="0.1"></line>
                            <line x1="78.8371597" y1="4.3043431" x2="78.8371597" y2="322.778828" id="Path" stroke="#000000" stroke-width="0.945179584" opacity="0.1"></line>
                            <line x1="105.774778" y1="2.88657372" x2="105.774778" y2="324.742987" id="Path" stroke="#000000" stroke-width="0.945179584" opacity="0.1"></line>
                            <line x1="132.712396" y1="1.46880435" x2="132.712396" y2="325.141777" id="Path" stroke="#000000" stroke-width="0.945179584" opacity="0.1"></line>
                            <ellipse id="Oval" fill="#2F2E41" fill-rule="nonzero" cx="218.911725" cy="45.0488705" rx="18.6672968" ry="17.4858223"></ellipse>
                            <path d="M164.563894,153.980818 L159.837996,160.597075 C159.837996,160.597075 137.153686,165.322973 145.660302,172.411819 C154.166919,179.500666 166.454253,165.795562 166.454253,165.795562 L173.07051,157.288946 L164.563894,153.980818 Z" id="Path" fill="#FFB8B8" fill-rule="nonzero"></path>
                            <path d="M189.138563,78.8390406 C189.138563,78.8390406 182.994896,78.8390406 181.577127,87.3456569 C180.159357,95.8522732 178.741588,124.207661 178.741588,124.207661 C178.741588,124.207661 158.892817,150.200099 162.200945,153.508228 C165.509074,156.816356 169.289792,162.960024 171.652741,162.014844 C174.01569,161.069664 194.337051,133.186867 194.337051,133.186867 L189.138563,78.8390406 Z" id="Path" fill="#6C63FF" fill-rule="nonzero"></path>
                            <path d="M189.138563,78.8390406 C189.138563,78.8390406 182.994896,78.8390406 181.577127,87.3456569 C180.159357,95.8522732 178.741588,124.207661 178.741588,124.207661 C178.741588,124.207661 158.892817,150.200099 162.200945,153.508228 C165.509074,156.816356 169.289792,162.960024 171.652741,162.014844 C174.01569,161.069664 194.337051,133.186867 194.337051,133.186867 L189.138563,78.8390406 Z" id="Path" fill="#000000" fill-rule="nonzero" opacity="0.1"></path>
                            <path d="M208.042155,54.7369612 C208.042155,54.7369612 207.569565,73.1679631 201.898488,74.1131427 C196.22741,75.0583223 198.117769,81.2019896 198.117769,81.2019896 C198.117769,81.2019896 216.548771,92.0715548 228.836106,81.2019896 L231.199055,75.5309121 C231.199055,75.5309121 222.692439,69.3872448 226.473157,60.8806285 L208.042155,54.7369612 Z" id="Path" fill="#FFB8B8" fill-rule="nonzero"></path>
                            <path d="M176.378639,168.158511 C176.378639,168.158511 148.495841,220.143388 158.892817,236.211441 C169.289792,252.279494 184.885255,285.36078 187.248204,285.36078 C189.611153,285.36078 202.843667,278.744523 201.898488,274.491215 C200.953308,270.237906 186.775614,238.57439 182.994896,235.738852 C179.214178,232.903313 181.104537,225.341876 181.577127,224.869286 C182.049716,224.396697 197.64518,199.349438 197.64518,199.349438 C197.64518,199.349438 197.17259,239.04698 199.062949,245.190647 C200.953308,251.334315 198.590359,295.285165 200.953308,297.175525 C203.316257,299.065884 214.185822,302.374012 216.076181,299.538474 C217.966541,296.702935 223.637618,253.697264 219.8569,243.772878 L226.945747,175.719948 L176.378639,168.158511 Z" id="Path" fill="#2F2E41" fill-rule="nonzero"></path>
                            <path d="M201.898488,294.339986 L190.083743,316.079116 C190.083743,316.079116 173.07051,328.366451 184.885255,330.25681 C196.7,332.147169 203.788847,327.421271 203.788847,327.421271 L214.185822,319.859835 L214.185822,298.120704 L201.898488,294.339986 Z" id="Path" fill="#2F2E41" fill-rule="nonzero"></path>
                            <path d="M185.830435,282.052651 L191.974102,296.702935 C191.974102,296.702935 194.337051,302.846602 191.974102,304.264371 C189.611153,305.682141 182.994896,314.188757 187.248204,315.133937 C188.103832,315.301568 188.97338,315.388011 189.845265,315.392112 C197.001972,315.512561 203.897723,312.706416 208.936796,307.623039 L212.768053,303.791782 C212.768053,303.791782 199.644201,273.570482 199.826181,273.794551 C200.008162,274.01862 185.830435,282.052651 185.830435,282.052651 Z" id="Path" fill="#2F2E41" fill-rule="nonzero"></path>
                            <circle id="Oval" fill="#FFB8B8" fill-rule="nonzero" cx="219.856905" cy="50.0110633" r="16.0680529"></circle>
                            <path d="M229.072401,72.4590784 L224.110208,77.4212713 C224.110208,77.4212713 208.987335,83.0923488 201.898488,77.4212713 C201.898488,77.4212713 204.497732,71.9864887 204.497732,72.4590784 C204.497732,72.9316682 183.940076,76.0035019 182.049716,84.5101181 C180.159357,93.0167344 183.467486,107.667018 183.467486,107.667018 C183.467486,107.667018 170.234972,170.048871 175.433459,171.46664 C180.631947,172.884409 229.308696,184.699154 228.836106,175.719948 C228.363516,166.740742 232.616824,129.878738 232.616824,129.878738 L249.157467,98.2152221 C249.157467,98.2152221 246.794518,87.8182467 241.12344,84.5101181 C235.452363,81.2019896 229.072401,72.4590784 229.072401,72.4590784 Z" id="Path" fill="#6C63FF" fill-rule="nonzero"></path>
                            <path d="M208.042155,164.850383 L201.898488,168.631101 C201.898488,168.631101 178.268998,184.699154 190.556333,187.534693 C202.843667,190.370232 209.932514,176.192538 209.932514,176.192538 L214.658412,170.52146 L208.042155,164.850383 Z" id="Path" fill="#FFB8B8" fill-rule="nonzero"></path>
                            <path d="M243.0138,95.3796834 L247.267108,99.6329915 C247.267108,99.6329915 250.102647,139.330534 244.431569,147.36456 C238.760491,155.398587 212.768053,177.137717 211.350284,175.719948 C209.932514,174.302179 200.953308,167.213332 202.843667,166.268152 C204.734026,165.322973 229.867708,139.061432 229.867708,139.061432 L227.890926,102.46853 L243.0138,95.3796834 Z" id="Path" fill="#000000" fill-rule="nonzero" opacity="0.1"></path>
                            <path d="M244.904159,93.961914 L249.157467,98.2152221 C249.157467,98.2152221 251.993006,137.912765 246.321928,145.946791 C240.650851,153.980818 214.658412,175.719948 213.240643,174.302179 C211.822873,172.884409 202.843667,165.795562 204.734026,164.850383 C206.624386,163.905203 231.758067,137.643663 231.758067,137.643663 L229.781285,101.050761 L244.904159,93.961914 Z" id="Path" fill="#6C63FF" fill-rule="nonzero"></path>
                            <path d="M213.211531,27.1874008 C213.211531,27.1874008 207.749575,25.2012335 200.301446,29.4218384 L204.273781,30.4149197 C204.273781,30.4149197 198.315279,30.9114603 197.570468,38.8561295 L200.301446,38.8561295 C200.301446,38.8561295 198.563549,45.8077127 200.301446,47.79388 L201.418648,45.6835775 L204.646167,52.13862 L205.390969,48.9110964 L206.880595,49.4076418 L207.873681,44.1939509 C207.873681,44.1939509 210.356389,47.9180151 212.342557,48.1662854 L212.342557,44.9387665 C212.342557,44.9387665 217.804513,51.145534 219.54241,50.8972637 L217.059702,47.4214745 L220.535491,48.166276 L219.045888,45.6835681 L227.983639,48.166276 L225.997472,45.6835681 L232.204239,47.6697353 L235.183492,48.911087 C235.183492,48.911087 239.404097,39.2285255 233.445595,32.5252127 C227.487094,25.8218998 218.797599,24.3322826 213.211531,27.1874008 Z" id="Path" fill="#2F2E41" fill-rule="nonzero"></path>
                        </g>
                    </g>
                </g>
            </g>
        </g>
    </g>
</svg>